<?xml version="1.0" encoding="UTF-8" standalone="no"?>
<svg
   xmlns:dc="http://purl.org/dc/elements/1.1/"
   xmlns:cc="http://creativecommons.org/ns#"
   xmlns:rdf="http://www.w3.org/1999/02/22-rdf-syntax-ns#"
   xmlns:svg="http://www.w3.org/2000/svg"
   xmlns="http://www.w3.org/2000/svg"
   id="svg8"
   version="1.1"
   viewBox="0 0 410 120"
   height="150mm"
   width="410mm">
  <defs
     id="defs2">
    <clipPath
       clipPathUnits="userSpaceOnUse"
       id="clipPath45">
      <path
         d="M 0,416.693 H 1162.205 V 0 H 0 Z"
         id="path43" />
    </clipPath>
  </defs>
  <metadata
     id="metadata5">
    <rdf:RDF>
      <cc:Work
         rdf:about="">
        <dc:format>image/svg+xml</dc:format>
        <dc:type
           rdf:resource="http://purl.org/dc/dcmitype/StillImage" />
        <dc:title></dc:title>
      </cc:Work>
    </rdf:RDF>
  </metadata>
  <g
     transform="translate(0,-177)"
     id="layer1">
    <g
       id="g37"
       transform="matrix(0.35277777,0,0,-0.35277777,0.0576319,310.50001)">
      <g
         id="g39">
        <g
           id="g41"
           clip-path="url(#clipPath45)">
          <g
             id="g47"
             transform="translate(508.0586,120.0474)">
            <path
               d="m 0,0 c -7.311,-11.114 -16.226,-19.295 -26.75,-24.558 -10.524,-5.261 -22.365,-7.892 -35.521,-7.892 -11.99,0 -23.098,2.048 -33.327,6.139 -10.237,4.09 -19.076,9.497 -26.531,16.225 -7.454,6.722 -13.231,14.472 -17.322,23.242 -4.097,8.771 -6.139,17.686 -6.139,26.75 v 109.631 c 0,5.55 -1.097,9.792 -3.289,12.718 -2.193,2.919 -4.899,4.385 -8.113,4.385 -3.22,0 -7.167,-1.391 -11.84,-4.166 -4.68,-2.783 -9.359,-6.509 -14.033,-11.183 0,5.551 1.535,10.964 4.605,16.226 3.07,5.262 7.085,10.011 12.059,14.252 4.968,4.234 10.888,7.599 17.761,10.086 6.865,2.48 13.957,3.728 21.268,3.728 6.427,0 12.786,-1.028 19.076,-3.07 6.283,-2.049 11.84,-5.043 16.664,-8.99 4.824,-3.947 8.695,-8.771 11.621,-14.472 2.918,-5.7 4.385,-12.209 4.385,-19.514 V 39.906 c 0,-9.942 1.021,-18.493 3.07,-25.654 2.042,-7.167 4.672,-13.087 7.893,-17.76 3.214,-4.68 6.866,-8.112 10.963,-10.305 4.091,-2.193 8.182,-3.289 12.279,-3.289 4.673,0 8.99,1.096 12.936,3.289 3.947,2.193 7.524,5.043 10.744,8.55 3.213,3.509 6.064,7.381 8.551,11.622 2.481,4.235 4.454,8.256 5.921,12.059 v 131.119 c 0,5.55 -1.097,9.792 -3.29,12.718 -2.192,2.919 -4.898,4.385 -8.112,4.385 -3.221,0 -7.167,-1.391 -11.841,-4.166 -4.679,-2.783 -9.359,-6.509 -14.032,-11.183 0,5.551 1.535,10.964 4.604,16.226 3.07,5.262 7.086,10.011 12.06,14.252 4.968,4.234 10.888,7.599 17.76,10.086 6.866,2.48 13.958,3.728 21.269,3.728 6.427,0 12.785,-1.028 19.075,-3.07 6.284,-2.049 11.841,-5.043 16.664,-8.99 4.824,-3.947 8.696,-8.771 11.621,-14.472 2.918,-5.7 4.385,-12.209 4.385,-19.514 V 15.787"
               style="fill:#647768;fill-opacity:1;fill-rule:nonzero;stroke:none"
               id="path49" />
          </g>
          <g
             id="g51"
             transform="translate(722.4854,243.273)">
            <path
               d="m 0,0 c 0,-12.574 0.802,-22.879 2.412,-30.916 1.604,-8.044 3.871,-14.327 6.797,-18.856 2.919,-4.537 6.283,-7.606 10.086,-9.209 3.796,-1.611 7.894,-2.413 12.279,-2.413 4.386,0 8.476,0.802 12.279,2.413 3.795,1.603 7.16,4.672 10.085,9.209 2.919,4.529 5.188,10.812 6.798,18.856 1.603,8.037 2.411,18.342 2.411,30.916 0,12.566 -0.808,22.873 -2.411,30.916 -1.61,8.037 -3.879,14.32 -6.798,18.857 -2.925,4.529 -6.29,7.598 -10.085,9.209 -3.803,1.603 -7.893,2.411 -12.279,2.411 -4.385,0 -8.483,-0.808 -12.279,-2.411 C 15.492,57.371 12.128,54.302 9.209,49.773 6.283,45.236 4.016,38.953 2.412,30.916 0.802,22.873 0,12.566 0,0 m -82.004,-192.95 c 0,8.77 2.7,16.224 8.112,22.364 5.407,6.14 12.787,9.209 22.146,9.209 9.353,0 17.027,-3.214 23.023,-9.647 5.988,-6.427 8.99,-14.759 8.99,-24.997 0,-5.261 -1.028,-10.01 -3.07,-14.251 -2.05,-4.235 -5.556,-9.133 -10.524,-14.691 6.722,-2.632 13.813,-4.453 21.267,-5.481 7.456,-1.021 16.294,-1.535 26.532,-1.535 21.049,0 38.953,1.686 53.718,5.043 14.76,3.365 26.819,7.606 36.179,12.717 9.354,5.118 16.225,10.675 20.61,16.664 4.385,5.995 6.579,11.62 6.579,16.883 0,7.311 -4.317,13.307 -12.937,17.98 -8.626,4.679 -23.022,7.016 -43.194,7.016 H -8.771 c -11.401,0 -21.418,1.391 -30.038,4.165 -8.627,2.777 -15.718,6.504 -21.269,11.184 -5.556,4.673 -9.723,10.011 -12.497,16.006 -2.782,5.988 -4.166,12.203 -4.166,18.636 0,6.428 1.164,12.204 3.509,17.323 2.336,5.111 5.481,9.647 9.427,13.594 3.947,3.947 8.401,7.379 13.374,10.305 4.969,2.919 10.086,5.406 15.35,7.454 -11.114,6.722 -19.008,14.76 -23.681,24.119 -4.68,9.354 -7.016,19.584 -7.016,30.698 0,21.926 7.962,39.83 23.899,53.718 15.931,13.883 39.975,20.831 72.137,20.831 14.91,0 28.285,-1.466 40.126,-4.385 11.84,-2.926 21.118,-6.579 27.846,-10.964 1.459,5.263 3.577,10.668 6.358,16.226 2.775,5.55 6.209,10.524 10.306,14.91 4.09,4.385 8.838,7.961 14.252,10.743 5.406,2.776 11.326,4.166 17.76,4.166 6.722,0 13.08,-1.905 19.075,-5.7 5.99,-3.803 8.991,-10.381 8.991,-19.734 0,-4.974 -1.172,-9.285 -3.509,-12.936 -2.343,-3.659 -6.139,-5.482 -11.401,-5.482 -4.975,0 -8.99,1.679 -12.06,5.043 -3.069,3.358 -4.605,7.962 -4.605,13.814 0,3.508 0.439,6.358 1.316,8.551 0.878,2.192 1.755,4.015 2.632,5.481 -3.509,-0.295 -7.092,-1.028 -10.744,-2.193 -3.66,-1.171 -7.167,-3.288 -10.525,-6.358 -3.364,-3.07 -6.653,-7.235 -9.867,-12.498 -3.221,-5.263 -6.14,-12.134 -8.77,-20.61 7.599,-6.729 13.081,-14.327 16.445,-22.804 3.357,-8.482 5.043,-17.397 5.043,-26.75 0,-21.343 -8.189,-38.885 -24.558,-52.622 -16.376,-13.745 -41.515,-20.611 -75.427,-20.611 -9.941,0 -19.226,0.726 -27.845,2.193 -8.627,1.459 -16.74,3.796 -24.338,7.016 -4.098,-1.466 -8.552,-3.509 -13.376,-6.139 -4.823,-2.632 -7.235,-5.996 -7.235,-10.086 0,-1.467 0.506,-3.07 1.535,-4.824 1.021,-1.755 2.85,-3.365 5.481,-4.824 2.632,-1.466 6.208,-2.707 10.743,-3.728 4.531,-1.027 10.307,-1.534 17.322,-1.534 h 84.198 c 21.927,0 39.685,-5.701 53.28,-17.103 13.595,-11.401 20.392,-27.483 20.392,-48.237 0,-12.279 -2.631,-23.529 -7.894,-33.767 -5.262,-10.23 -13.155,-19.076 -23.68,-26.531 -10.524,-7.455 -23.612,-13.224 -39.249,-17.322 -15.642,-4.09 -33.985,-6.139 -55.034,-6.139 -9.36,0 -20.103,0.589 -32.231,1.754 -12.135,1.172 -23.613,3.584 -34.424,7.236 -10.82,3.659 -19.953,8.771 -27.408,15.348 -7.455,6.578 -11.183,15.28 -11.183,26.093"
               style="fill:#647768;fill-opacity:1;fill-rule:nonzero;stroke:none"
               id="path53" />
          </g>
          <g
             id="g55"
             transform="translate(955.333,268.7076)">
            <path
               d="m 0,0 c -2.926,5.845 -5.92,10.086 -8.989,12.717 -3.071,2.631 -6.359,3.947 -9.867,3.947 -3.509,0 -7.237,-1.247 -11.183,-3.727 -3.946,-2.487 -7.969,-5.777 -12.06,-9.868 0,6.14 1.605,11.909 4.825,17.322 3.212,5.407 7.598,10.086 13.156,14.033 5.549,3.947 11.908,7.017 19.075,9.209 7.16,2.192 14.834,3.289 23.022,3.289 12.568,0 23.092,-3.069 31.574,-9.209 8.476,-6.14 15.93,-16.226 22.365,-30.258 l 46.046,-99.984 45.167,115.771 c 1.165,2.631 1.755,4.967 1.755,7.016 0,1.755 -0.878,3.214 -2.632,4.386 -1.754,1.165 -3.879,1.973 -6.358,2.412 -2.488,0.438 -5.194,0.726 -8.113,0.877 -2.926,0.143 -5.557,0.219 -7.894,0.219 h -3.507 v 6.577 h 70.163 v -6.577 c -9.942,0 -16.883,-0.953 -20.83,-2.851 -3.946,-1.905 -7.092,-5.92 -9.428,-12.059 L 89.021,-200.845 C 84.046,-214 79.078,-224.888 74.11,-233.514 c -4.973,-8.621 -10.161,-15.568 -15.567,-20.831 -5.413,-5.261 -11.039,-8.989 -16.883,-11.181 -5.851,-2.194 -12.135,-3.289 -18.856,-3.289 -14.033,0 -25.147,3.659 -33.328,10.962 -8.189,7.311 -12.279,16.816 -12.279,28.504 0,11.992 3.652,20.83 10.962,26.532 7.305,5.7 15.35,8.55 24.119,8.55 9.936,0 17.61,-3.069 23.023,-9.209 5.406,-6.138 8.113,-13.593 8.113,-22.364 0,-4.969 -0.877,-9.935 -2.632,-14.91 -1.754,-4.968 -4.679,-9.935 -8.769,-14.909 8.181,1.466 15.712,6.433 22.583,14.909 6.866,8.483 13.958,21.782 21.269,39.905 l 7.893,19.735 z"
               style="fill:#647768;fill-opacity:1;fill-rule:nonzero;stroke:none"
               id="path57" />
          </g>
          <g
             id="g59"
             transform="translate(575.1523,265.1992)">
            <path
               d="m 0,0 v -133.749 c 0,-5.558 1.021,-9.429 3.07,-11.623 2.042,-2.191 4.53,-3.288 7.455,-3.288 3.796,0 8.037,1.384 12.717,4.166 4.673,2.776 9.353,6.503 14.033,11.183 0,-5.558 -1.535,-10.963 -4.604,-16.227 -3.07,-5.261 -7.168,-10.016 -12.279,-14.252 -5.119,-4.241 -11.114,-7.605 -17.98,-10.085 -6.872,-2.481 -14.108,-3.727 -21.706,-3.727 -10.237,0 -19.885,2.337 -28.943,7.016 -9.065,4.672 -15.348,11.69 -18.857,21.048 l -0.869,3.344 -2.2,15.075 V 0"
               style="fill:#647768;fill-opacity:1;fill-rule:nonzero;stroke:none"
               id="path61" />
          </g>
          <g
             id="g63"
             transform="translate(504.9893,138.4654)">
            <path
               d="m 0,0 v 131.119 c 0,5.55 -1.097,9.792 -3.29,12.718 -2.191,2.919 -4.898,4.385 -8.112,4.385 -3.221,0 -7.167,-1.391 -11.84,-4.166 -4.68,-2.783 -9.36,-6.509 -14.033,-11.183 0,5.551 1.535,10.964 4.605,16.226 3.069,5.262 7.085,10.011 12.059,14.252 4.968,4.234 10.888,7.599 17.76,10.086 6.866,2.48 13.958,3.728 21.269,3.728 6.427,0 12.786,-1.028 19.076,-3.07 6.283,-2.049 11.84,-5.043 16.664,-8.99 4.823,-3.947 8.695,-8.771 11.621,-14.472 2.918,-5.7 4.384,-12.209 4.384,-19.514 V -2.631"
               style="fill:#647768;fill-opacity:1;fill-rule:nonzero;stroke:none"
               id="path65" />
          </g>
          <g
             id="g67"
             transform="translate(44.4272,30.064)">
            <path
               d="m 0,0 h 4.87 c 4.183,0 6.72,2.058 6.72,6.858 0,4.801 -2.537,6.859 -6.72,6.859 H 0 Z M 12.756,-27.981 4.527,-7.817 H 0 V -27.981 H -9.464 V 21.534 H 4.252 c 11.385,0 16.803,-5.485 16.803,-14.813 0,-6.172 -2.195,-10.629 -7.475,-12.619 l 9.326,-22.083 z"
               style="fill:#647768;fill-opacity:1;fill-rule:nonzero;stroke:none"
               id="path69" />
          </g>
          <path
             d="m 75.697,51.598 h 9.464 V 2.082 h -9.464 z"
             style="fill:#647768;fill-opacity:1;fill-rule:nonzero;stroke:none"
             id="path71" />
          <g
             id="g73"
             transform="translate(96.2686,2.0826)">
            <path
               d="M 0,0 V 49.516 H 24.69 V 41.149 H 9.464 V 29.765 H 21.398 V 21.397 H 9.464 V 0 Z"
               style="fill:#647768;fill-opacity:1;fill-rule:nonzero;stroke:none"
               id="path75" />
          </g>
          <g
             id="g77"
             transform="translate(138.7856,51.5982)">
            <path
               d="m 0,0 v -34.633 c 0,-4.732 2.057,-7.201 6.652,-7.201 4.596,0 6.721,2.469 6.721,7.201 V 0 h 9.464 v -34.701 c 0,-10.904 -6.446,-15.5 -16.185,-15.5 -9.738,0 -16.116,4.596 -16.116,15.5 V 0 Z"
               style="fill:#647768;fill-opacity:1;fill-rule:nonzero;stroke:none"
               id="path79" />
          </g>
          <g
             id="g81"
             transform="translate(196.3892,6.1978)">
            <path
               d="m 0,0 c -2.538,-2.88 -5.281,-4.801 -8.847,-4.801 -9.19,0 -15.637,4.39 -15.637,16.597 V 29.49 c 0,12.208 6.447,16.596 15.637,16.596 9.67,0 14.882,-5.554 15.225,-16.803 h -9.464 c 0,6.379 -2.332,8.437 -5.761,8.437 -3.772,0 -6.173,-1.509 -6.173,-6.995 V 10.562 c 0,-5.487 2.401,-6.996 6.173,-6.996 3.566,0 5.761,2.606 5.761,6.859 v 3.016 h -6.653 v 7.82 H 6.378 V -4.115 H 1.44 Z"
               style="fill:#647768;fill-opacity:1;fill-rule:nonzero;stroke:none"
               id="path83" />
          </g>
          <path
             d="m 213.462,51.598 h 9.464 V 2.082 h -9.464 z"
             style="fill:#647768;fill-opacity:1;fill-rule:nonzero;stroke:none"
             id="path85" />
          <g
             id="g87"
             transform="translate(242.6758,16.7593)">
            <path
               d="m 0,0 c 0,-5.486 2.4,-6.995 6.172,-6.995 3.772,0 6.173,1.509 6.173,6.995 v 20.163 c 0,5.486 -2.401,6.995 -6.173,6.995 C 2.4,27.158 0,25.649 0,20.163 Z m -9.464,18.929 c 0,12.208 6.446,16.595 15.636,16.595 9.19,0 15.637,-4.387 15.637,-16.595 V 1.234 c 0,-12.207 -6.447,-16.596 -15.637,-16.596 -9.19,0 -15.636,4.389 -15.636,16.596 z"
               style="fill:#647768;fill-opacity:1;fill-rule:nonzero;stroke:none"
               id="path89" />
          </g>
          <g
             id="g91"
             transform="translate(292.1167,51.5982)">
            <path
               d="m 0,0 h 9.327 l 8.71,-35.388 h 0.137 L 26.815,0 h 9.259 L 23.455,-49.516 H 12.688 Z"
               style="fill:#647768;fill-opacity:1;fill-rule:nonzero;stroke:none"
               id="path93" />
          </g>
          <g
             id="g95"
             transform="translate(345.6748,20.8746)">
            <path
               d="M 0,0 H 9.396 L 4.801,20.026 H 4.664 Z m -13.51,-18.792 12.276,49.516 h 12.139 l 11.933,-49.516 h -9.053 l -2.4,10.425 H -1.714 l -2.675,-10.425 z"
               style="fill:#647768;fill-opacity:1;fill-rule:nonzero;stroke:none"
               id="path97" />
          </g>
          <g
             id="g99"
             transform="translate(375.71,2.0826)">
            <path
               d="M 0,0 V 49.516 H 9.464 V 8.367 H 24.689 V 0 Z"
               style="fill:#647768;fill-opacity:1;fill-rule:nonzero;stroke:none"
               id="path101" />
          </g>
          <g
             id="g103"
             transform="translate(417.6772,9.9009)">
            <path
               d="m 0,0 h 3.978 c 4.938,0 7.543,2.881 7.543,7.201 0,4.733 -3.291,7.064 -8.229,7.064 H 0 Z m 0,22.084 h 3.292 c 4.252,0 7.064,2.469 7.064,5.829 0,3.634 -2.126,5.967 -6.584,5.967 H 0 Z M -9.464,41.697 H 3.841 c 10.15,0 15.979,-4.252 15.979,-12.756 0,-4.319 -2.126,-7.886 -6.103,-10.286 5.212,-3.293 7.269,-6.036 7.269,-12.208 0,-9.807 -6.584,-14.265 -16.597,-14.265 H -9.464 Z"
               style="fill:#647768;fill-opacity:1;fill-rule:nonzero;stroke:none"
               id="path105" />
          </g>
          <g
             id="g107"
             transform="translate(457.8623,30.064)">
            <path
               d="m 0,0 h 4.869 c 4.183,0 6.721,2.058 6.721,6.858 0,4.801 -2.538,6.859 -6.721,6.859 L 0,13.717 Z M 12.756,-27.981 4.526,-7.817 H 0 V -27.981 H -9.464 V 21.534 H 4.252 c 11.384,0 16.802,-5.485 16.802,-14.813 0,-6.172 -2.194,-10.629 -7.475,-12.619 l 9.327,-22.083 z"
               style="fill:#647768;fill-opacity:1;fill-rule:nonzero;stroke:none"
               id="path109" />
          </g>
          <g
             id="g111"
             transform="translate(498.5962,51.5982)">
            <path
               d="m 0,0 v -34.633 c 0,-4.732 2.057,-7.201 6.652,-7.201 4.595,0 6.721,2.469 6.721,7.201 V 0 h 9.464 v -34.701 c 0,-10.904 -6.446,-15.5 -16.185,-15.5 -9.739,0 -16.116,4.596 -16.116,15.5 V 0 Z"
               style="fill:#647768;fill-opacity:1;fill-rule:nonzero;stroke:none"
               id="path113" />
          </g>
          <g
             id="g115"
             transform="translate(533.0879,2.0826)">
            <path
               d="M 0,0 V 49.516 H 10.355 L 23.523,20.164 h 0.137 v 29.352 h 8.642 V 0 H 23.249 L 8.778,31.959 H 8.641 V 0 Z"
               style="fill:#647768;fill-opacity:1;fill-rule:nonzero;stroke:none"
               id="path117" />
          </g>
          <g
             id="g119"
             transform="translate(586.6445,20.8746)">
            <path
               d="M 0,0 H 9.396 L 4.801,20.026 H 4.664 Z m -13.511,-18.792 12.277,49.516 h 12.138 l 11.934,-49.516 h -9.052 l -2.401,10.425 h -13.1 l -2.674,-10.425 z"
               style="fill:#647768;fill-opacity:1;fill-rule:nonzero;stroke:none"
               id="path121" />
          </g>
          <g
             id="g123"
             transform="translate(93.3105,207.4527)">
            <path
               d="m 0,0 c -0.541,-0.979 -1.159,-1.913 -1.852,-2.794 -4.67,-6.166 -13.184,-12.114 -20.537,-16.293 -0.217,-0.123 -0.48,-0.123 -0.696,0 -7.387,4.216 -15.962,10.192 -20.637,16.407 -0.651,0.849 -1.237,1.745 -1.757,2.684 -5.666,9.636 -5.674,19.255 -0.024,24.098 0.016,0.012 0.028,0.024 0.045,0.037 3.547,2.704 8.091,3.724 12.446,2.798 3.99,-0.848 7.464,-3.253 9.677,-6.658 0.282,-0.434 0.909,-0.434 1.188,0 2.212,3.405 5.686,5.81 9.672,6.658 4.367,0.93 8.919,-0.099 12.471,-2.815 C 5.687,19.288 5.687,9.652 0,0 m 218.054,-85.368 c -14.71,1.557 -26.479,16.528 -29.248,19.759 -2.769,3.23 -82.033,104.502 -81.454,121.565 0.234,6.904 14.604,21.864 20.967,28.454 8.169,8.458 18.546,19.087 32.188,30.535 13.415,11.26 23.972,12.356 27.28,12.356 h 16.709 l 0.001,9.692 H 89.12 v -9.692 h 15.692 c 8.816,0 13.845,-7.846 14.306,-17.076 C 119.58,100.995 113.58,86.227 97.427,71.92 81.274,57.613 16.663,10.539 16.663,10.539 l 0.462,116.762 c 0,0 2.769,28.614 -34.614,57.227 -37.382,28.614 -76.149,11.538 -76.149,11.538 0,0 14.999,-1.615 24.691,-12.461 9.909,-11.088 9,-39.228 9,-39.228 V -74.379 l 25.509,20.727 v 26.872 h 23.406 v -7.855 L 36.046,3.617 c 0,0 65.996,-92.303 69.227,-96.456 3.23,-4.153 19.38,-27.542 63.227,-26.767 42.458,0.75 70.149,36.92 70.149,36.92 0,0 -9.495,-3.858 -20.595,-2.682"
               style="fill:#647768;fill-opacity:1;fill-rule:nonzero;stroke:none"
               id="path125" />
          </g>
          <g
             id="g127"
             transform="translate(267.1919,388.2686)">
            <path
               d="M 0,0 -12.327,-15.661 -40.919,28.532 -83.9,-37.901 h 54.068 31.894 27.771 z"
               style="fill:#647768;fill-opacity:1;fill-rule:nonzero;stroke:none"
               id="path129" />
          </g>
        </g>
      </g>
    </g>
  </g>
</svg>
