<?xml version="1.0" encoding="UTF-8" standalone="no"?>
<!-- Created with Inkscape (http://www.inkscape.org/) -->

<svg
   version="1.1"
   id="svg2"
   width="1564.349"
   height="576.64429"
   viewBox="0 0 1564.349 576.64429"
   sodipodi:docname="03_KUGY_CAI_V+sito.svg"
   inkscape:version="1.2.1 (9c6d41e410, 2022-07-14)"
   xmlns:inkscape="http://www.inkscape.org/namespaces/inkscape"
   xmlns:sodipodi="http://sodipodi.sourceforge.net/DTD/sodipodi-0.dtd"
   xmlns="http://www.w3.org/2000/svg"
   xmlns:svg="http://www.w3.org/2000/svg">
  <defs
     id="defs6" />
  <sodipodi:namedview
     id="namedview4"
     pagecolor="#ffffff"
     bordercolor="#000000"
     borderopacity="0.25"
     inkscape:showpageshadow="2"
     inkscape:pageopacity="0.0"
     inkscape:pagecheckerboard="0"
     inkscape:deskcolor="#d1d1d1"
     showgrid="false"
     inkscape:zoom="0.905042"
     inkscape:cx="170.71031"
     inkscape:cy="177.8923"
     inkscape:window-width="1920"
     inkscape:window-height="1005"
     inkscape:window-x="0"
     inkscape:window-y="0"
     inkscape:window-maximized="1"
     inkscape:current-layer="g8" />
  <g
     inkscape:groupmode="layer"
     inkscape:label="Image"
     id="g8">
    <path
       style="fill:#758174;stroke:none;stroke-width:0.644295"
       d="M 304.75168,0.6442953 C 290.9644,19.607581 278.98953,40.206668 266.2924,59.919463 c -5.98872,9.297181 -15.52687,19.750228 -18.883,30.281878 h 79.89261 72.80537 C 393.984,76.459167 379.87522,63.300016 370.4698,51.543624 c -1.9767,-2.470551 -6.92038,-11.464075 -10.34094,-11.464075 -2.22926,0 -4.16601,3.495688 -5.34701,5.021122 -3.65637,4.720365 -7.19291,10.621788 -12.01675,14.174496 C 338.12811,46.610126 327.31812,34.530684 320.01632,23.194631 315.35356,15.954942 311.11925,6.4795489 304.75168,0.6442953 M 0.6442953,18.040268 v 0.644296 c 5.1150733,0.660531 10.0544217,2.308767 14.8187917,4.25557 34.424312,14.066448 30.28188,57.259812 30.28188,87.878656 v 184.91275 58.63087 c 0,8.72183 -1.653971,19.229 0,27.7047 l 24.483221,-19.57949 9.27592,-8.31141 0.38851,-10.76682 v -25.12751 h 31.570472 v 10.30872 l 63.78523,-50.89933 c 2.53402,6.02352 7.53182,11.44398 11.32607,16.75168 l 22.55034,31.57047 c 15.52751,21.71984 30.91135,43.56982 46.73524,65.07382 9.93955,13.50766 18.82245,27.41477 33.42862,36.42782 50.08236,30.90555 124.1731,14.5295 157.85235,-33.85063 -12.72419,1.87232 -23.95619,5.49519 -36.72483,0.8408 -17.67946,-6.44488 -29.79479,-23.98067 -40.86379,-38.20993 -22.11221,-28.42567 -43.35205,-57.4647 -63.97594,-86.97987 -9.33198,-13.35495 -18.30637,-27.04429 -26.32333,-41.2349 -3.25949,-5.7703 -8.43383,-13.7731 -8.42545,-20.61744 0.006,-4.90696 3.56811,-9.74368 6.31731,-13.53021 6.65944,-9.17347 14.4509,-17.75742 22.45241,-25.77181 19.57111,-19.60204 41.37342,-47.20236 68.93959,-55.3862 10.51555,-3.12161 22.02266,-1.95608 32.85906,-1.95608 V 97.932885 H 246.12081 v 12.885905 c 8.64386,0 20.41707,-2.07205 28.34899,1.93224 23.04064,11.63147 7.73025,43.26765 -3.14932,57.34293 -12.24741,15.84451 -29.43914,27.59903 -45.17283,39.72145 -25.43742,19.6001 -51.23436,38.83232 -77.31543,57.56714 0,-32.96924 -1.41681,-66.28768 0.0251,-99.22148 0.60757,-13.8633 0.52188,-27.70341 0.52188,-41.60601 0,-12.92585 0.43941,-25.16489 -3.60419,-37.642309 C 127.94674,33.899404 55.858534,-6.4338297 0.6442953,18.040268 M 1104.9664,156.56376 c -9.5226,-4.08226 -18.3237,-8.79077 -28.3489,-11.77708 -35.1721,-10.48075 -75.7176,-11.54899 -111.46313,-3.46115 -16.86765,3.81745 -33.53557,10.24623 -47.03356,21.33584 -33.33584,27.39092 -44.01826,76.92821 -24.6443,115.6742 6.14014,12.26996 17.8792,26.56494 31.08725,31.57047 v 1.28859 c -43.10335,10.23849 -72.05798,61.50056 -44.04402,99.86577 4.79355,6.5673 10.8306,12.23517 17.62791,16.70078 23.71652,15.58486 51.37611,15.51398 78.60403,15.51398 h 91.48992 c 23.9227,0 58.9788,-1.05793 75.8142,19.32886 7.3837,8.94024 6.1982,19.95512 1.0438,29.63759 -8.3694,15.72918 -23.3428,25.2873 -38.8446,33.0182 -32.5175,16.21562 -71.1688,20.20574 -106.95298,20.46024 -24.51544,0.1746 -47.46524,-1.11528 -70.87249,-9.02207 4.74202,-6.29541 10.21208,-12.11468 13.60108,-19.32886 7.37074,-15.68021 5.27033,-36.36145 -5.07061,-50.25503 -20.42416,-27.44311 -65.63436,-18.42491 -73.44966,14.81879 -11.25584,47.83571 42.78765,68.68639 80.38228,75.00499 12.22873,2.05466 24.43812,2.53917 36.72483,3.70857 11.4298,1.08757 22.73075,0.67329 34.14765,0.53734 56.4918,-0.672 128.6851,-16.72462 151.9248,-75.38513 4.7163,-11.91946 6.5718,-24.62045 6.5718,-37.36912 0,-10.29004 -1.0888,-20.44349 -4.2974,-30.28188 -2.4226,-7.4429 -5.6634,-14.15453 -10.1026,-20.61745 -28.8257,-41.97777 -83.6488,-36.72483 -127.9892,-36.72483 h -34.79196 c -20.90738,0 -44.30819,2.78206 -64.42953,-3.86642 -7.27409,-2.40258 -19.01315,-7.82303 -17.80188,-17.39533 0.92134,-7.29149 8.03436,-11.37439 13.93611,-14.33364 3.87221,-1.94061 9.07168,-5.49841 13.5302,-5.49841 4.4843,0 9.86416,3.26529 14.1745,4.54872 8.76241,2.61133 17.96939,4.5352 27.0604,5.51195 54.39136,5.8444 123.88506,0.0238 153.43246,-53.36956 13.6591,-24.68617 14.0263,-59.20107 1.4561,-84.40268 -3.2086,-6.43393 -7.0099,-12.7461 -11.913,-18.04027 -2.0875,-2.24923 -7.0099,-5.43463 -7.4416,-8.64902 -0.6765,-5.07447 4.5036,-13.9535 6.7007,-18.41138 9.7417,-19.82497 23.4008,-33.87898 45.8996,-36.72483 -6.1144,10.4743 -8.247,26.72085 0.2126,36.71516 10.9401,12.92263 30.9906,8.8262 35.8421,-7.07758 9.5743,-31.37203 -21.2939,-49.606228 -48.9406,-43.240591 -27.2731,6.280591 -46.7823,33.828081 -52.8323,59.992271 m -666.84559,39.30201 c 11.21202,-7.66647 32.99178,-31.52344 45.88091,-13.52956 4.79807,6.6981 4.37412,15.98433 4.37412,23.83828 v 43.16779 73.44966 c 0,15.2421 -1.33176,30.91329 2.85294,45.74497 7.59624,26.92252 27.15447,47.59603 51.26787,60.82985 10.5426,5.78577 22.28231,10.00848 34.14765,12.02642 17.69621,3.01014 36.02706,2.83876 53.47651,-1.58046 14.2647,-3.61321 27.99463,-10.85444 38.65772,-21.04591 5.38631,-5.14598 9.32295,-11.84923 14.81879,-16.72655 1.65584,20.22894 24.24483,33.81842 41.87919,38.41482 29.12215,7.59109 60.989,0.48902 82.4698,-21.01884 9.49047,-9.50014 16.71302,-21.67281 16.75168,-35.43624 -10.79195,7.51184 -29.82443,28.96687 -44.4306,17.05514 -5.65692,-4.61831 -5.82443,-12.93101 -5.82443,-19.63232 V 338.25503 219.7047 c 0,-23.41241 1.05664,-46.12768 -17.40242,-63.7279 -28.09128,-26.77755 -75.96242,-24.86528 -105.01369,-0.94969 -10.68306,8.79528 -24.45294,25.78663 -21.90604,40.83866 9.91119,-6.97514 27.35033,-27.13965 41.2349,-17.97004 7.10013,4.68983 8.37584,13.37235 8.37584,21.19152 v 41.2349 92.77852 28.34899 c 0,4.71109 0.78604,10.25267 -0.509,14.81879 -4.43919,15.64543 -18.3753,33.341 -32.35006,41.31673 -3.61772,2.06561 -7.51571,3.59388 -11.59732,4.42566 -29.31737,5.97584 -45.81906,-26.45219 -50.38067,-50.25245 -3.34003,-17.42433 -1.80725,-35.81896 -1.80725,-53.47651 v -88.26846 c 0,-24.61015 2.81042,-50.18609 -14.36778,-70.22819 -26.82846,-31.30051 -79.5447,-29.56413 -109.33692,-3.94953 -11.65981,10.02459 -21.21793,24.19522 -21.26174,40.03007 m 791.19459,-0.6443 c 11.9259,-7.8881 25.469,-24.72483 41.2349,-14.5688 16.887,10.87764 23.4008,37.92515 31.738,55.15941 23.3751,48.32215 45.3326,97.4458 67.6832,146.25503 6.5976,14.41611 13.3692,28.75297 19.9732,43.16779 2.3195,5.06609 8.073,13.02893 7.796,18.68456 -0.3995,8.22958 -7.0808,18.79409 -10.1863,26.41611 -7.8153,19.21224 -16.4489,38.7273 -29.8631,54.7651 -6.9713,8.33073 -16.771,16.40182 -27.8658,18.04026 17.5571,-22.13605 23.549,-64.2008 -7.7315,-78.403 -5.8567,-2.65772 -12.3254,-3.51012 -18.6846,-3.82518 -36.8666,-1.82529 -58.1219,36.57535 -44.2695,68.69798 16.713,38.77369 73.3079,40.25364 102.2561,15.82454 29.818,-25.1636 42.298,-68.90416 55.68,-104.09299 25.2306,-66.32054 50.9637,-132.55474 77.3025,-198.44295 8.0408,-20.11619 15.5791,-40.43275 23.5812,-60.56376 3.6532,-9.19216 6.2948,-20.68897 14.2325,-27.26593 7.8475,-6.5003 21.7579,-7.3527 31.5125,-6.23743 v -9.66443 h -52.8322 -41.2349 l -0.6443,0.6443 v 8.37584 c 10.2765,2.11071 31.6929,-3.34454 37.717,8.3855 2.094,4.07775 -0.3543,9.02465 -1.8942,12.87624 -3.9366,9.85128 -7.6607,19.78696 -11.5973,29.63759 -11.1205,27.82711 -21.8996,55.81337 -32.7238,83.75838 -5.1608,13.32145 -9.3294,27.96242 -15.9849,40.59061 -15.6886,-37.68677 -34.3088,-74.36134 -51.3439,-111.46309 -10.7275,-23.36537 -20.334,-49.98894 -42.7232,-64.84445 -26.8027,-17.78449 -68.0956,-12.6443 -94.0672,4.08225 -15.2762,9.83775 -27.0475,25.2712 -27.0604,44.01052 m -218.4161,-43.62781 c 21.5517,-2.64676 35.5651,11.91624 41.1447,31.3862 4.7678,16.6428 5.2446,33.72049 5.2446,50.89933 0,16.44113 -0.3415,32.96086 -4.6132,48.96644 -4.3683,16.38508 -13.3755,30.96613 -31.4673,33.31716 -23.32997,3.03205 -37.35628,-11.5709 -43.35467,-32.67286 -4.51007,-15.87415 -4.96752,-32.58846 -4.96752,-48.96644 0,-17.06287 0.41235,-34.36542 5.15436,-50.89933 4.88376,-17.03903 14.4451,-29.76838 32.85903,-32.0305 m 545.0739,91.30567 v 12.24161 h -12.8859 v -8.37584 h -3.2215 v 8.37584 h -11.5973 v -11.59732 h -3.2215 v 15.46309 h 34.1476 v -16.10738 h -3.2214 M 74.738255,245.6698 c 5.15694,-0.74159 10.577396,0.74609 14.816215,3.70792 1.689342,1.18034 3.744,4.40311 5.801235,4.71237 2.348456,0.35308 6.235495,-4.91726 8.375835,-6.09761 7.04988,-3.88639 17.88951,-3.32456 23.62696,2.75758 14.82201,15.71243 -5.62019,39.36194 -17.8283,48.44135 -3.49337,2.59844 -9.04848,7.74378 -13.5302,8.18448 -4.247839,0.4175 -10.88859,-5.69557 -14.174496,-8.05434 -10.125745,-7.26894 -19.076682,-16.7942 -21.721579,-29.36182 -2.389884,-11.35571 2.107554,-22.48848 14.63433,-24.28993 M 1525.047,282.84563 h 34.1476 v -3.86577 h -16.1073 c 0.2255,-6.89653 10.4375,-8.35329 16.1073,-9.66443 v -4.51006 l -16.7516,5.79865 c -3.0089,-6.17943 -12.1772,-7.87457 -16.0494,-1.27892 -2.2422,3.81745 -1.3466,9.2727 -1.3466,13.52053 m 14.8188,-3.86577 h -11.5973 c 0,-2.48569 -0.3157,-5.4881 1.1984,-7.63618 1.9328,-2.74792 7.6349,-2.93348 9.4582,0.0515 1.3273,2.16934 0.9407,5.15565 0.9407,7.58464 m 1.9329,14.1745 h -1.2886 c -2.7447,-4.74008 -10.9595,-5.57702 -14.1165,-0.57664 -2.4033,3.80134 -1.3466,9.81261 -1.3466,14.10684 h 34.1476 c 0,-4.58609 1.0889,-10.8306 -1.7396,-14.78335 -3.7047,-5.17047 -12.9954,-4.28328 -15.6563,1.25315 m 14.1745,9.66443 h -12.8859 c 0,-2.40516 -0.4639,-5.48424 0.7602,-7.66132 1.9265,-3.42249 8.6207,-3.73691 10.9273,-0.56762 1.6429,2.25374 1.1984,5.60408 1.1984,8.22894 m -16.1074,0 h -11.5973 c 0,-2.50631 -0.509,-6.01128 1.1984,-8.09622 5.5731,-6.8044 10.3087,3.58035 10.3989,8.09622 m 1.2886,8.75855 c -7.8862,0.28542 -25.3402,7.43581 -12.8602,16.59318 4.1429,3.03656 11.1463,3.18797 16.0816,2.97213 7.0164,-0.30732 21.8932,-6.17943 13.3498,-15.30072 -3.8722,-4.1338 -11.2751,-4.45595 -16.5712,-4.26459 m 0,3.94051 c 3.9431,0.0522 9.4518,-0.4916 12.815,1.94448 9.7675,7.06857 -8.6207,9.92602 -12.815,9.83002 -3.8594,-0.0883 -11.9968,-0.32344 -13.0406,-5.17241 -1.3659,-6.36563 9.149,-6.65428 13.0406,-6.60209 m -16.1074,17.58282 v 18.04027 h 3.2215 v -7.08725 h 30.9261 v -3.86577 h -30.9261 v -7.08725 h -3.2215 m 0,18.68456 v 18.04027 h 3.2215 v -7.08725 h 30.9261 v -3.86577 h -30.9261 v -7.08725 h -3.2215 m 13.5302,20.24634 c -7.3385,0.9761 -21.7192,8.69412 -10.283,16.49782 5.7665,3.9302 14.6964,3.36 21.236,2.36457 7.4609,-1.13525 14.7995,-9.33906 7.055,-15.64414 -4.4069,-3.5855 -12.6153,-3.93471 -18.008,-3.21825 m 1.2886,3.77686 c 4.2072,-0.49547 11.1592,-0.27705 14.6706,2.38969 5.3347,4.05068 -1.6945,8.43576 -5.6505,8.91382 -5.2188,0.63141 -13.2596,1.52698 -18.008,-1.26926 -9.4712,-5.58088 4.9224,-9.55619 8.9879,-10.03425 m 18.6845,28.80902 c -4.8257,2.2866 -12.5959,7.70061 -18.0402,7.25605 -5.1608,-0.42266 -10.56,-4.30905 -15.4631,-5.96746 0.071,5.92429 5.8502,7.16649 10.953,8.37584 v 1.28859 c -4.8451,1.15071 -10.7662,2.72472 -10.953,8.37583 l 16.1074,-6.2677 18.0402,6.2677 c -0.1997,-6.02287 -8.64,-7.36558 -13.5302,-9.02013 l 13.5302,-5.79866 -0.6443,-4.51006 m -33.5033,22.55033 c 0.1868,5.71232 6.8102,7.06599 11.5973,8.37584 v 0.6443 c -5.2059,1.42453 -11.5264,2.90963 -11.5973,9.02013 l 16.1074,-6.5847 18.0402,6.5847 c -0.219,-6.65042 -8.6077,-7.04408 -13.5302,-9.66443 5.0191,-1.70867 13.3305,-3.53847 13.5302,-9.66443 l -18.0402,6.98158 -16.1074,-5.69299 m 33.5033,19.32886 c -4.5358,2.41933 -12.8214,7.70255 -18.0402,7.34497 -5.0255,-0.34341 -10.7855,-4.24076 -15.4631,-6.05638 0.071,5.9243 5.8502,7.1665 10.953,8.37584 v 1.28859 c -4.7678,1.3047 -10.7662,2.74083 -10.953,8.37584 l 16.1074,-6.17042 18.0402,6.81471 c -0.077,-6.38689 -7.4867,-7.7702 -12.8859,-9.02013 v -1.28859 c 4.2459,-1.22287 14.69,-3.77944 12.2416,-9.66443 m -13.5302,44.45638 h 3.8658 V 479.3557 c -5.7342,0.45681 -3.5758,7.41455 -3.8658,11.59732 m -1265.39594,5.79865 c -1.8807,9.86739 1.41616,10.30873 10.30873,10.30873 0,-10.15216 -1.09208,-9.27914 -10.30873,-10.30873 m 137.8792,0 v 10.30873 c 2.54819,0 7.8327,1.00317 9.91957,-0.66234 1.32274,-1.056 0.83178,-3.04751 0.76929,-4.49202 -0.29122,-6.69874 -5.14212,-5.15437 -10.68886,-5.15437 m -114.04027,19.97316 h -4.51007 v 8.37584 h 4.51007 v 34.79194 l 10.29068,-0.52703 0.66234,-9.1374 v -25.12751 h 6.44295 v -8.37584 h -6.44295 c 6.4e-4,-5.27485 0.50835,-8.30561 6.44295,-8.37584 v -9.02014 c -13.52505,-1.70931 -17.39597,4.66213 -17.39597,17.39598 m 192.64429,43.16778 c 0,-8.59876 -0.0844,-13.8182 5.79866,-20.61745 l 7.08725,21.26175 h 10.95302 c -0.98642,-9.83968 -10.92596,-20.53756 -10.1077,-30.28188 0.42201,-5.03001 7.00542,-11.04773 9.46341,-15.46309 -12.35115,-3.09906 -17.78127,6.67104 -22.55034,16.75168 -2.00376,-6.77928 -0.6443,-15.49208 -0.6443,-22.55034 0,-2.35296 0.67523,-6.00869 -0.38851,-8.17095 -1.15071,-2.33815 -8.38099,-2.33815 -9.5317,0 -1.62298,3.29879 -0.38851,9.68956 -0.38851,13.32532 v 31.57047 c 0,3.19763 -1.44451,11.13986 0.66234,13.69385 1.6088,1.95028 7.32306,0.48193 9.64638,0.48064 M 1525.047,507.0604 v 3.86577 h 34.1476 V 507.0604 H 1525.047 M 259.00671,519.9463 h -0.64429 c -0.0258,-7.33594 -4.62024,-5.30126 -10.30873,-5.79865 V 547.651 l 0.66234,11.71458 10.29068,0.52703 V 534.7651 c 0,-3.0559 -0.63076,-7.13557 2.07979,-9.29139 2.48698,-1.97863 6.05444,-0.73514 8.87323,-0.37304 l -0.64429,-11.59732 c -4.58867,0.89299 -8.02857,2.08687 -10.30873,6.44295 m 117.90604,26.41611 v 0.6443 c -5.21557,3.02303 -8.54464,9.58389 -1.92322,13.47286 4.01976,2.36069 9.67989,1.9142 14.16483,2.45025 1.65133,0.1978 7.62782,-0.0541 6.70068,3.12548 -1.9767,6.77863 -15.93407,1.09981 -19.58658,-0.2094 -1.79436,-0.64365 -5.03002,-1.91227 -6.42427,0.0754 -3.24789,4.62862 3.64864,8.40548 7.06856,9.33198 7.54277,2.04306 22.48269,2.26534 27.83098,-4.52682 8.69412,-11.04129 -6.37659,-16.87538 -14.94507,-17.25165 -1.92838,-0.0844 -7.46287,0.7448 -7.96929,-2.06755 -0.28284,-1.57272 1.62105,-2.13712 2.79302,-2.22088 4.88956,-0.3505 9.69858,-0.0348 13.30083,-4.18019 5.84892,-6.73095 1.29568,-13.41294 3.40188,-20.4029 0.76478,-2.53788 3.9534,-1.77374 5.86953,-1.43549 v -9.66443 c -3.75753,0.56505 -6.68778,2.13455 -9.02013,5.15436 -5.73165,-4.86958 -15.32263,-7.39522 -21.89638,-2.30722 -8.50921,6.58663 -7.872,23.87501 0.63463,30.01192 m 77.95974,-32.5833 c -22.51619,3.19699 -20.87324,50.32719 4.51006,47.21782 22.74041,-2.78593 21.19861,-50.86775 -4.51006,-47.21782 m 122.4161,32.5833 v 0.6443 c -1.55597,0.90781 -2.99146,1.80596 -4.09063,3.28204 -8.04338,10.80869 11.08446,12.08504 16.97654,12.71839 1.7106,0.18426 4.16344,-0.02 5.49842,1.30341 1.9084,1.89229 -1.3788,3.78652 -2.92188,4.23302 -3.66411,1.06051 -8.11104,0.34405 -11.59668,-0.96129 -3.46953,-1.2989 -6.65492,-2.47088 -10.30872,-3.1796 -2.88902,6.01192 1.31758,9.67345 7.08725,10.94335 7.64972,1.68355 20.97696,2.16806 26.80655,-4.06808 10.24945,-10.96332 -6.2458,-17.2001 -14.56494,-17.77095 -1.65648,-0.11339 -8.56462,0.61788 -7.96929,-2.59973 0.36209,-1.95544 11.97358,-2.49342 14.38454,-4.31162 7.12848,-5.37729 5.97133,-15.81745 4.53777,-23.42787 h 6.44295 v -9.66443 c -3.53396,0.53219 -6.63302,1.92258 -8.37584,5.15436 -6.50545,-4.01009 -13.79758,-7.24252 -21.2611,-3.07457 -9.99366,5.58153 -9.29976,24.53605 -0.64494,30.77927 m 135.94631,-3.22148 h -10.30872 c -0.0773,8.82814 -11.59732,11.7236 -12.21584,1.93289 -0.30282,-4.89858 -1.6043,-14.26856 0.7345,-18.65621 3.53073,-6.61756 11.15919,-2.09976 11.48134,3.83742 h 10.95302 c -0.99222,-4.11705 -1.01799,-8.23281 -4.00108,-11.56961 -6.20456,-6.9352 -21.19731,-7.22384 -26.85422,0.67651 -4.83222,6.74899 -3.82712,22.2939 -2.43544,30.22196 2.04886,11.66947 18.72966,14.90706 27.46631,8.50276 4.67758,-3.43409 5.63114,-9.5549 5.18013,-14.94572 m 24.48322,-29.35473 c -22.3055,3.50367 -20.16644,50.86904 5.79866,47.11924 22.29906,-3.22018 20.08269,-51.18539 -5.79866,-47.11924 m 41.2349,5.51581 c -0.0838,-6.89461 -5.2059,-4.5178 -10.30872,-5.15436 v 45.74496 h 10.30872 c 0,-10.15409 -1.46899,-21.54588 0.0966,-31.57047 0.44456,-2.84263 5.49584,-8.64257 8.29208,-4.97202 1.40456,1.84397 0.63141,5.39468 0.63141,7.5492 v 19.32886 c 0,2.23957 -0.95356,7.43002 1.03087,9.0021 2.1004,1.66292 7.3643,0.66233 9.92215,0.66233 0,-10.18759 -0.84403,-20.78045 0.0387,-30.92617 0.25771,-2.94121 3.02174,-6.86239 6.36563,-6.70325 3.67249,0.17525 3.25369,6.16784 3.26014,8.63613 0.0129,9.62964 0.55409,19.43066 -0.6443,28.99329 2.40967,0.002 8.56913,1.43549 10.2894,-0.52703 2.60295,-2.96505 0.66362,-14.27307 0.66362,-18.15753 0,-8.77917 2.46121,-34.33965 -14.17449,-26.46765 -2.67383,1.26346 -4.69047,3.52687 -7.08725,5.2059 -3.33101,-9.78362 -13.0792,-5.75742 -18.68457,-0.64429 m -722.899328,40.5906 9.46212,-0.1018 2.521772,-6.98545 3.479195,-19.97315 h 0.644295 l 6.442953,27.7047 h 9.66443 c 5.196886,-13.77504 8.987919,-31.15361 10.95302,-45.74497 l -9.66443,-0.64429 -5.798657,28.34899 h -0.644296 c -0.633342,-7.75281 -2.435436,-19.23157 -5.80961,-26.26663 -1.176484,-2.45348 -7.275383,-2.94314 -9.127088,-0.94325 -1.689342,1.824 -1.708671,5.55511 -2.233772,7.88102 -1.403919,6.21294 -2.495935,12.51866 -4.091275,18.68456 -2.669637,-7.87071 -1.911302,-18.99833 -6.119839,-26.12102 -1.157863,-1.9593 -7.959624,-2.48569 -9.267157,-0.55087 -1.61499,2.39034 1.482202,9.24177 2.081525,11.8531 2.486529,10.83512 6.083307,21.83581 7.506814,32.85906 m 47.677848,-45.74496 7.45837,33.50335 3.76526,12.06765 9.39382,0.17396 5.15437,-27.0604 h 0.64429 c 0.79635,4.10738 1.8298,8.15356 2.71248,12.24161 1.46191,6.77219 0.81504,15.03979 8.88484,14.9309 1.91162,-0.0264 3.7601,0.44585 4.87538,-1.50572 2.23313,-3.90572 2.68478,-10.31452 3.63576,-14.71377 2.08816,-9.66056 4.27747,-19.48091 6.95194,-28.99329 h -10.30872 l -5.15436,27.0604 h -0.6443 l -4.23688,-18.68456 -2.56945,-7.89777 -8.65676,-1.12236 -5.79865,28.34899 h -0.6443 l -4.13895,-20.61745 -2.58298,-7.06856 -8.74116,-0.66298 m 57.98658,0 -0.64429,0.64429 10.95302,45.74497 h 9.66443 l 5.79865,-27.7047 h 0.6443 l 3.94244,18.68456 2.05144,7.4268 9.13868,0.90587 3.77686,-11.55414 7.50669,-34.14765 -9.28494,1.1971 -2.31238,7.82303 -3.86577,18.68456 h -0.6443 l -4.10673,-19.97315 -2.6152,-6.88236 -8.74115,-0.20489 -5.15437,27.0604 -4.88118,-19.32885 -2.53723,-7.61622 -8.68897,-0.75962 m 117.90604,46.38926 10.30873,-0.6443 v -45.74496 l -10.34867,1.15522 -0.60435,11.73068 0.64429,33.50336 m 48.96645,-46.38926 v 27.0604 c 0,4.28714 -0.7403,9.38867 0.51543,13.52956 3.18733,10.51232 15.08618,5.53965 20.74631,0.64494 v 4.51006 h 10.30873 v -45.74496 c -2.51727,0.17975 -8.56849,-1.09466 -9.92022,1.56821 -1.14491,2.25632 -0.38851,6.26835 -0.38851,8.74051 0,6.93069 1.49992,15.83098 -0.20489,22.54776 -1.09401,4.30969 -7.98604,8.0408 -10.17277,2.56752 -2.1803,-5.45976 -0.57536,-14.13133 -0.57536,-19.96092 V 514.14767 H 328.5906 m 88.91275,0 v 45.74496 l 10.27522,-1.02378 0.6778,-9.28494 v -24.48322 l -0.75963,-9.91055 -10.19339,-1.04247 m 111.46309,0 v 27.0604 c 0,4.2633 -0.77187,9.42217 0.51801,13.5302 3.25949,10.37831 15.18862,5.71103 20.74373,0.6443 l 0.6443,5.15436 9.5491,-1.03345 0.75962,-9.27528 v -25.12751 l -0.63656,-9.7978 -10.31646,-1.15522 c 0,10.36026 1.49799,21.98722 -0.0954,32.21476 -0.47226,3.03077 -4.20402,6.98609 -7.59817,5.98679 -3.21439,-0.94647 -3.11581,-6.51318 -3.23436,-9.20827 -0.42137,-9.62641 -0.0251,-19.3572 -0.0251,-28.99328 h -10.30872 m 83.75838,0 c 0.88913,10.88601 5.81799,22.36864 8.83265,32.85906 1.13331,3.94308 3.29299,8.72698 3.07522,12.8859 -0.28413,5.43785 -6.22454,7.05053 -10.61927,7.08725 v 9.02013 c 5.39339,0 11.10958,0.50771 15.43538,-3.35935 4.66276,-4.16859 5.79092,-10.86797 7.38813,-16.6138 3.64607,-13.11527 10.06132,-28.28263 10.67984,-41.87919 h -10.30872 l -6.44296,29.63758 h -0.64429 l -7.08725,-29.63758 h -10.30873 m 912.32219,7.73154 1.0309,5.16209 9.2778,2.49278 23.8389,5.23104 c -0.1739,-5.31222 -5.2574,-5.2291 -9.6644,-5.79866 v -9.02014 l 9.6644,-1.28859 v -3.86577 l -34.1476,7.08725 m 21.2617,0 -0.6443,6.44295 -16.7516,-3.22147 c 3.782,-2.62808 12.9761,-4.43662 17.3959,-3.22148 m -1161.63607,0.9265 c 8.4132,-2.28596 9.73143,15.65508 3.16477,17.47586 -8.79269,2.4393 -9.73143,-15.69117 -3.16477,-17.47586 m 200.37584,0 c 8.51049,-2.31174 9.88864,15.65122 3.16477,17.47586 -8.55688,2.3214 -9.80037,-15.67313 -3.16477,-17.47586 M 455.52,523.42228 c 10.60317,-2.42191 7.73863,13.56306 7.72832,19.71865 -0.006,3.31233 -0.0335,7.01831 -3.87543,8.09622 -11.1141,3.11968 -9.51753,-17.05385 -8.14454,-23.54964 0.48709,-2.30464 2.00312,-3.74271 4.29165,-4.26523 m 282.85531,0.0251 c 11.18496,-3.14093 8.37583,13.36913 8.36295,19.69353 -0.006,3.31168 -0.0322,7.01831 -3.87866,8.09622 -11.18497,3.14094 -8.37584,-13.36913 -8.36295,-19.69353 0.006,-3.31168 0.0322,-7.01831 3.87866,-8.09622 m 809.22199,13.89488 v 3.86577 c 4.2137,0.19264 12.2867,3.80778 6.9391,8.75017 -2.371,2.19061 -6.4301,2.57718 -9.5163,2.7898 -4.2845,0.29509 -10.3538,0.40784 -14.1358,-1.93288 -5.9468,-3.67635 -0.071,-8.49439 4.4714,-8.9628 v -3.86577 c -7.3514,0.33697 -15.2054,7.85976 -8.2856,14.68091 4.3039,4.24011 11.6875,4.13187 17.3057,3.99399 4.2717,-0.10437 10.1864,-0.76993 13.2596,-4.07517 7.3128,-7.85975 -2.5385,-15.0881 -10.0381,-15.24402 M 223.57047,548.2953 v 12.24161 l 11.57026,-1.12494 0.67135,-11.11667 h -12.24161 m 432.32215,0 0.67007,11.20623 11.57154,1.03538 V 548.2953 Z"
       id="path237" />
  </g>
</svg>
