<?xml version="1.0" encoding="UTF-8" standalone="no"?>
<svg
   xmlns:dc="http://purl.org/dc/elements/1.1/"
   xmlns:cc="http://creativecommons.org/ns#"
   xmlns:rdf="http://www.w3.org/1999/02/22-rdf-syntax-ns#"
   xmlns:svg="http://www.w3.org/2000/svg"
   xmlns="http://www.w3.org/2000/svg"
   xmlns:sodipodi="http://sodipodi.sourceforge.net/DTD/sodipodi-0.dtd"
   xmlns:inkscape="http://www.inkscape.org/namespaces/inkscape"
   width="320"
   height="198"
   viewBox="0 0 320 198"
   fill="none"
   version="1.1"
   id="svg10"
   sodipodi:docname="logo-Rifugio-Kugy-bg-dark.svg"
   inkscape:version="1.0 (6e3e5246a0, 2020-05-07)">
  <metadata
     id="metadata16">
    <rdf:RDF>
      <cc:Work
         rdf:about="">
        <dc:format>image/svg+xml</dc:format>
        <dc:type
           rdf:resource="http://purl.org/dc/dcmitype/StillImage" />
      </cc:Work>
    </rdf:RDF>
  </metadata>
  <defs
     id="defs14" />
  <sodipodi:namedview
     inkscape:document-rotation="0"
     pagecolor="#ffffff"
     bordercolor="#666666"
     borderopacity="1"
     objecttolerance="10"
     gridtolerance="10"
     guidetolerance="10"
     inkscape:pageopacity="0"
     inkscape:pageshadow="2"
     inkscape:window-width="1299"
     inkscape:window-height="713"
     id="namedview12"
     showgrid="false"
     inkscape:zoom="2.5757576"
     inkscape:cx="160"
     inkscape:cy="130.05882"
     inkscape:window-x="67"
     inkscape:window-y="27"
     inkscape:window-maximized="1"
     inkscape:current-layer="svg10" />
  <path
     fill-rule="evenodd"
     clip-rule="evenodd"
     d="m 13.7097,81.858119 6.4278,-9.4583 5.2891,-0.3591 3.4425,-2.5204 4.4272,0.127 4.6604,4.7288 3.5458,-3.1276 2.6225,-2.5881 6.1464,3.5312 0.4353,3.0535 3.0468,-3.0535 3.4821,1.527 1.741,10.179 5.2231,-9.1611 3.4821,-2.0357 3.9173,-1.5277 3.0468,5.0898 3.4821,0.5086 0.6638,3.6497 4.8135,1.2171 2.677,-1.3731 4.033,0.0632 5.122,-5.3309 5.6587,-4.3253 5.196,-4.1461 6.758,3.624 1.539,3.2643 7.245,-5.7216 3.79,-6.7032 3.429,-3.0535 4.763,2.1104 1.19,2.2291 2.137,-0.8387 5.403,3.1161 8.706,1.0178 3.482,-3.0535 1.305,1.5277 3.976,-7.422 c 0,0 4.307,-4.6554 5.542,-8.0576 2.074,-0.8259 3.975,-4.8777 3.975,-4.8777 l 2.308,-0.72 4.63,-4.4298 8.239,0.1476 3.075,4.5039 2.213,4.2157 2.169,-1.46 1.306,-2.7563 1.494,-0.7201 c 0.723,1.8947 3.729,7.8455 3.729,7.8455 l 2.611,-6.6162 3.557,-4.4001 2.431,-0.8999 1.38,0.936 2.167,-1.0816 2.907,0.6465 4.89,2.7338 3.126,-2.7557 2.95,-0.3906 1.939,-4.6664 2.945,-4.3697 3.482,-2.5443 2.612,-2.0363 3.538,2.1278 4.297,-0.8618 2.398,-3.2288 3.082,0.105 0.803,2.3187 2.857,-3.4796 3.874,1.9731 2.734,2.0828 4.062,3.0167 4.188,4.3924 c 2.012,-0.1056 5.223,-1.0898 6.188,-1.1848 l 8.987,1.4084 6.188,3.4055 6.893,1.618 1.524,2.5726 6.27,1.0178 3.435,1.6625 c 0.655,1.6412 1.383,4.1893 5.334,6.6568 l -14.593,-6.2862 -14.85,-6.2507 -9.03,-2.3316 -6.942,0.9102 -9.366,-7.1364 c -1.234,-1.4089 1.625,1.7069 -3.825,-2.3548 l -3.698,2.2684 -6.707,1.8655 -7.356,-2.485 -5.73,4.1313 -4.162,8.1633 -3.316,1.4194 -3.441,3.1096 -6.828,-3.5208 -6.735,0.6568 -4.076,6.0509 -3.22,5.8808 -6.566,15.2275 -8.597,13.2145 c -0.403,-0.8724 8.785,-17.8009 10.061,-22.3479 1.276,-4.547 2.641,-9.1297 2.596,-10.1442 -0.09,-2.0277 -0.434,-3.2804 -1.647,-4.0778 l -5.075,5.0254 -4.611,-8.2916 -4.454,-2.2413 -8.333,5.65 -5.117,6.3055 -5.362,6.2334 -4.51,8.2348 -3.311,5.9588 -2.22,18.3236 -0.416,-16.6992 -1.804,-5.9897 -6.68,-1.1345 -5.356,-2.8073 -2.71,1.181 -4.926,-4.9029 -5.992,8.7595 -9.554,7.9571 -3.526,-5.9066 -4.533,-1.4658 -13.0921,13.1564 -8.8242,1.9429 -10.0596,-4.7669 -4.3174,-5.6119 -4.6281,5.1452 -6.1296,9.0374 -2.9252,-5.9536 -0.918,-7.5625 -4.2175,4.1145 -6.2043,-7.5993 -6.1271,5.048 -6.3176,-4.1075 -10.9745,2.0892 z"
     fill="#e5e5e5"
     stroke="#e5e5e5"
     stroke-width="0.195553"
     id="path4" />
  <path
     d="M64.5953 127.188C64.9767 127.188 65.27 127.364 65.4753 127.716C65.71 128.068 65.8273 128.552 65.8273 129.168C65.8273 130.312 65.5487 131.221 64.9913 131.896C63.5833 133.597 62.1607 134.917 60.7233 135.856C59.286 136.765 57.5847 137.22 55.6193 137.22C53.7127 137.22 52.0847 136.707 50.7353 135.68C49.4153 134.653 48.154 132.893 46.9513 130.4C45.9833 128.405 45.2207 126.939 44.6633 126C44.106 125.032 43.5487 124.343 42.9913 123.932C42.4633 123.521 41.8033 123.272 41.0113 123.184C40.894 123.8 40.5567 125.736 39.9993 128.992C39.7647 130.459 39.618 131.353 39.5593 131.676C39.266 133.465 38.6793 134.844 37.7993 135.812C36.9193 136.751 35.5847 137.22 33.7953 137.22C31.83 137.22 30.0847 136.648 28.5593 135.504C27.0633 134.331 25.9047 132.717 25.0833 130.664C24.262 128.581 23.8513 126.22 23.8513 123.58C23.8513 118.652 24.702 114.399 26.4033 110.82C28.134 107.241 30.5393 104.513 33.6193 102.636C36.7287 100.729 40.3073 99.776 44.3553 99.776C47.1713 99.776 49.5327 100.201 51.4393 101.052C53.346 101.903 54.754 103.076 55.6633 104.572C56.602 106.068 57.0713 107.755 57.0713 109.632C57.0713 111.275 56.6753 112.888 55.8833 114.472C55.1207 116.027 53.962 117.405 52.4073 118.608C50.8527 119.811 48.9607 120.705 46.7313 121.292C48.1393 121.673 49.2247 122.289 49.9873 123.14C50.75 123.991 51.5127 125.237 52.2753 126.88C53.0967 128.64 53.9033 129.931 54.6953 130.752C55.5167 131.573 56.4553 131.984 57.5113 131.984C58.45 131.984 59.3447 131.676 60.1953 131.06C61.046 130.415 62.1167 129.329 63.4073 127.804C63.7593 127.393 64.1553 127.188 64.5953 127.188ZM34.9393 123.14C33.942 123.14 33.2527 122.905 32.8713 122.436C32.5193 121.967 32.3433 121.439 32.3433 120.852C32.3433 120.148 32.5633 119.591 33.0033 119.18C33.4727 118.769 34.0007 118.564 34.5873 118.564H35.6873C36.1567 115.689 36.5967 113.211 37.0073 111.128C37.3887 109.221 38.6207 108.268 40.7033 108.268C42.3753 108.268 43.2113 109.016 43.2113 110.512C43.2113 110.835 43.1967 111.084 43.1673 111.26L41.8473 118.564C43.4313 118.476 44.8687 118.095 46.1593 117.42C47.4793 116.745 48.5207 115.807 49.2833 114.604C50.0753 113.401 50.4713 112.037 50.4713 110.512C50.4713 108.664 49.8407 107.212 48.5793 106.156C47.318 105.1 45.47 104.572 43.0353 104.572C40.1607 104.572 37.638 105.291 35.4673 106.728C33.326 108.136 31.654 110.248 30.4513 113.064C29.2487 115.851 28.6473 119.253 28.6473 123.272C28.6473 125.149 28.838 126.763 29.2193 128.112C29.6007 129.461 30.07 130.473 30.6273 131.148C31.1847 131.823 31.7127 132.16 32.2113 132.16C32.5927 132.16 32.9007 131.969 33.1353 131.588C33.3993 131.207 33.6047 130.591 33.7513 129.74L34.9393 123.14ZM69.7822 113.592C68.5502 113.592 67.6262 113.313 67.0102 112.756C66.3942 112.169 66.0862 111.363 66.0862 110.336C66.0862 109.309 66.4822 108.459 67.2742 107.784C68.0955 107.08 69.1075 106.728 70.3102 106.728C71.3955 106.728 72.2755 106.992 72.9502 107.52C73.6248 108.048 73.9622 108.796 73.9622 109.764C73.9622 110.937 73.5808 111.876 72.8182 112.58C72.0555 113.255 71.0435 113.592 69.7822 113.592ZM69.4302 137.22C67.5235 137.22 66.1302 136.545 65.2502 135.196C64.3995 133.847 63.9742 132.057 63.9742 129.828C63.9742 128.508 64.1355 126.821 64.4582 124.768C64.8102 122.685 65.2502 120.749 65.7782 118.96C66.0422 118.021 66.3942 117.376 66.8342 117.024C67.2742 116.672 67.9782 116.496 68.9462 116.496C70.4422 116.496 71.1902 116.995 71.1902 117.992C71.1902 118.725 70.9115 120.427 70.3542 123.096C69.6502 126.323 69.2982 128.508 69.2982 129.652C69.2982 130.532 69.4155 131.207 69.6502 131.676C69.8848 132.145 70.2808 132.38 70.8382 132.38C71.3662 132.38 72.0262 132.013 72.8182 131.28C73.6102 130.547 74.6662 129.388 75.9862 127.804C76.3382 127.393 76.7342 127.188 77.1742 127.188C77.5555 127.188 77.8488 127.364 78.0542 127.716C78.2888 128.068 78.4062 128.552 78.4062 129.168C78.4062 130.341 78.1275 131.251 77.5702 131.896C74.6662 135.445 71.9528 137.22 69.4302 137.22ZM93.7326 124.68C94.554 124.68 94.9646 125.296 94.9646 126.528C94.9646 128.845 93.146 130.004 89.5086 130.004C88.8046 130.004 87.7926 129.872 86.4726 129.608C86.854 131.427 87.162 133.451 87.3966 135.68C87.6606 137.88 87.7926 139.699 87.7926 141.136C87.7926 144.304 87.2793 146.724 86.2526 148.396C85.226 150.068 83.8766 150.904 82.2046 150.904C80.0926 150.904 78.582 149.408 77.6726 146.416C76.7926 143.424 76.3526 138.907 76.3526 132.864C76.3526 127.232 76.954 121.527 78.1566 115.748C79.3886 109.94 81.0606 105.144 83.1726 101.36C85.314 97.5467 87.6606 95.64 90.2126 95.64C91.5913 95.64 92.662 96.256 93.4246 97.488C94.2166 98.72 94.6126 100.377 94.6126 102.46C94.6126 109.353 90.4913 116.863 82.2486 124.988C81.9553 127.863 81.8086 130.385 81.8086 132.556C81.8086 135.577 81.9113 138.672 82.1166 141.84C82.322 145.037 82.6593 146.636 83.1286 146.636C84.0086 146.636 84.4486 145.111 84.4486 142.06C84.4486 139.772 84.2873 137.557 83.9646 135.416C83.6713 133.275 83.2606 131.016 82.7326 128.64C82.7033 128.259 82.8206 127.775 83.0846 127.188C83.378 126.601 83.73 126.088 84.1406 125.648C84.5513 125.208 84.918 124.988 85.2406 124.988C85.8273 124.988 86.5313 125.017 87.3526 125.076C87.6166 125.105 87.9246 125.12 88.2766 125.12C89.45 125.12 90.7553 125.017 92.1926 124.812C92.4273 124.783 92.6766 124.753 92.9406 124.724C93.2046 124.695 93.4686 124.68 93.7326 124.68ZM89.2886 99.996C88.7606 99.996 88.1006 100.891 87.3086 102.68C86.546 104.469 85.7833 106.845 85.0206 109.808C84.258 112.741 83.598 115.851 83.0406 119.136C85.3873 116.467 87.1913 113.695 88.4526 110.82C89.714 107.916 90.3593 105.203 90.3886 102.68C90.3886 100.891 90.022 99.996 89.2886 99.996ZM97.8934 137.22C96.5734 137.22 95.488 136.619 94.6374 135.416C93.816 134.184 93.4054 132.659 93.4054 130.84C93.4054 128.64 93.552 126.631 93.8454 124.812C94.1387 122.964 94.6227 121.013 95.2974 118.96C95.5907 118.08 96.0014 117.449 96.5294 117.068C97.0574 116.687 97.8934 116.496 99.0374 116.496C99.6827 116.496 100.123 116.599 100.357 116.804C100.621 117.009 100.753 117.317 100.753 117.728C100.753 117.963 100.592 118.755 100.269 120.104C99.976 121.189 99.7414 122.172 99.5654 123.052C98.9787 126.132 98.6854 128.185 98.6854 129.212C98.6854 129.828 98.7587 130.268 98.9054 130.532C99.052 130.767 99.2867 130.884 99.6094 130.884C100.049 130.884 100.592 130.444 101.237 129.564C101.912 128.684 102.616 127.349 103.349 125.56C104.112 123.771 104.845 121.571 105.549 118.96C105.784 118.08 106.136 117.449 106.605 117.068C107.104 116.687 107.837 116.496 108.805 116.496C109.48 116.496 109.949 116.584 110.213 116.76C110.477 116.907 110.609 117.2 110.609 117.64C110.609 118.373 110.243 120.383 109.509 123.668C108.688 127.423 108.277 129.74 108.277 130.62C108.277 131.177 108.395 131.617 108.629 131.94C108.864 132.233 109.172 132.38 109.553 132.38C110.14 132.38 110.829 132.028 111.621 131.324C112.443 130.591 113.528 129.417 114.877 127.804C115.229 127.393 115.625 127.188 116.065 127.188C116.447 127.188 116.74 127.364 116.945 127.716C117.18 128.068 117.297 128.552 117.297 129.168C117.297 130.341 117.019 131.251 116.461 131.896C115.2 133.451 113.836 134.727 112.369 135.724C110.932 136.721 109.289 137.22 107.441 137.22C106.033 137.22 104.992 136.677 104.317 135.592C103.672 134.507 103.349 132.981 103.349 131.016C102.851 133.011 102.103 134.551 101.105 135.636C100.108 136.692 99.0374 137.22 97.8934 137.22ZM138.018 127.276C138.399 127.276 138.692 127.467 138.898 127.848C139.132 128.2 139.25 128.655 139.25 129.212C139.25 129.887 139.147 130.415 138.942 130.796C138.736 131.177 138.414 131.515 137.974 131.808C135.451 133.509 133.603 134.771 132.43 135.592L129.614 137.484C128.499 143.556 127.032 148.323 125.214 151.784C123.424 155.275 121.136 157.02 118.35 157.02C116.854 157.02 115.636 156.551 114.698 155.612C113.759 154.703 113.29 153.5 113.29 152.004C113.29 149.921 114.111 147.677 115.754 145.272C117.396 142.896 120.476 139.963 124.994 136.472L125.258 134.756C124.759 135.548 124.099 136.164 123.278 136.604C122.486 137.015 121.694 137.22 120.902 137.22C119.083 137.22 117.631 136.56 116.546 135.24C115.46 133.92 114.918 132.189 114.918 130.048C114.918 127.701 115.46 125.487 116.546 123.404C117.631 121.292 119.068 119.605 120.858 118.344C122.676 117.053 124.598 116.408 126.622 116.408C127.267 116.408 127.692 116.54 127.898 116.804C128.132 117.039 128.323 117.479 128.47 118.124C129.027 118.007 129.672 117.948 130.406 117.948C131.139 117.948 131.652 118.065 131.946 118.3C132.268 118.505 132.43 118.931 132.43 119.576C132.43 119.928 132.415 120.207 132.386 120.412C132.268 121.321 131.902 123.624 131.286 127.32C131.168 128.024 131.036 128.801 130.89 129.652C130.772 130.473 130.64 131.353 130.494 132.292C132.752 130.532 134.923 128.977 137.006 127.628C137.387 127.393 137.724 127.276 138.018 127.276ZM122.486 132.776C123.16 132.776 123.806 132.365 124.422 131.544C125.038 130.723 125.478 129.549 125.742 128.024L127.15 120.5C125.947 120.529 124.832 120.999 123.806 121.908C122.779 122.788 121.958 123.961 121.342 125.428C120.726 126.895 120.418 128.449 120.418 130.092C120.418 131.001 120.594 131.676 120.946 132.116C121.327 132.556 121.84 132.776 122.486 132.776ZM118.834 152.752C119.567 152.752 120.388 151.872 121.298 150.112C122.236 148.352 123.131 145.551 123.982 141.708C121.723 143.644 120.095 145.389 119.098 146.944C118.1 148.499 117.602 149.863 117.602 151.036C117.602 151.535 117.69 151.945 117.866 152.268C118.071 152.591 118.394 152.752 118.834 152.752ZM143.596 113.592C142.364 113.592 141.44 113.313 140.824 112.756C140.208 112.169 139.9 111.363 139.9 110.336C139.9 109.309 140.296 108.459 141.088 107.784C141.909 107.08 142.921 106.728 144.124 106.728C145.209 106.728 146.089 106.992 146.764 107.52C147.438 108.048 147.776 108.796 147.776 109.764C147.776 110.937 147.394 111.876 146.632 112.58C145.869 113.255 144.857 113.592 143.596 113.592ZM143.244 137.22C141.337 137.22 139.944 136.545 139.064 135.196C138.213 133.847 137.788 132.057 137.788 129.828C137.788 128.508 137.949 126.821 138.272 124.768C138.624 122.685 139.064 120.749 139.592 118.96C139.856 118.021 140.208 117.376 140.648 117.024C141.088 116.672 141.792 116.496 142.76 116.496C144.256 116.496 145.004 116.995 145.004 117.992C145.004 118.725 144.725 120.427 144.168 123.096C143.464 126.323 143.112 128.508 143.112 129.652C143.112 130.532 143.229 131.207 143.464 131.676C143.698 132.145 144.094 132.38 144.652 132.38C145.18 132.38 145.84 132.013 146.632 131.28C147.424 130.547 148.48 129.388 149.8 127.804C150.152 127.393 150.548 127.188 150.988 127.188C151.369 127.188 151.662 127.364 151.868 127.716C152.102 128.068 152.22 128.552 152.22 129.168C152.22 130.341 151.941 131.251 151.384 131.896C148.48 135.445 145.766 137.22 143.244 137.22ZM157.856 137.22C156.125 137.22 154.644 136.795 153.412 135.944C152.209 135.064 151.3 133.92 150.684 132.512C150.068 131.104 149.76 129.593 149.76 127.98C149.76 125.751 150.17 123.771 150.992 122.04C151.842 120.28 152.986 118.916 154.424 117.948C155.861 116.951 157.474 116.452 159.264 116.452C160.994 116.452 162.476 116.892 163.708 117.772C164.94 118.623 165.864 119.752 166.48 121.16C167.096 122.568 167.404 124.079 167.404 125.692C167.404 127.921 166.978 129.916 166.128 131.676C165.277 133.407 164.118 134.771 162.652 135.768C161.214 136.736 159.616 137.22 157.856 137.22ZM158.34 132.468C159.337 132.468 160.173 131.925 160.848 130.84C161.552 129.755 161.904 128.171 161.904 126.088C161.904 124.475 161.61 123.257 161.024 122.436C160.437 121.615 159.733 121.204 158.912 121.204C157.856 121.204 156.976 121.747 156.272 122.832C155.597 123.888 155.26 125.472 155.26 127.584C155.26 129.256 155.553 130.488 156.14 131.28C156.726 132.072 157.46 132.468 158.34 132.468ZM229.082 127.188C229.463 127.188 229.756 127.364 229.962 127.716C230.196 128.068 230.314 128.552 230.314 129.168C230.314 130.312 230.035 131.221 229.478 131.896C228.07 133.597 226.647 134.917 225.21 135.856C223.772 136.765 222.071 137.22 220.106 137.22C217.935 137.22 216.16 136.589 214.782 135.328C213.403 134.037 212.112 132.043 210.91 129.344C210.03 127.408 209.296 125.971 208.71 125.032C208.152 124.064 207.595 123.389 207.038 123.008C206.48 122.597 205.776 122.348 204.926 122.26L204.442 125.516C203.826 129.711 202.623 132.732 200.834 134.58C199.074 136.428 196.639 137.352 193.53 137.352C191.506 137.352 189.702 136.868 188.118 135.9C186.563 134.903 185.478 133.641 184.862 132.116C184.656 131.588 184.554 131.016 184.554 130.4C184.554 129.52 184.759 128.757 185.17 128.112C185.58 127.467 186.108 127.144 186.754 127.144C187.135 127.144 187.458 127.247 187.722 127.452C187.986 127.628 188.235 127.951 188.47 128.42C189.379 130.121 190.171 131.309 190.846 131.984C191.55 132.659 192.415 132.996 193.442 132.996C194.615 132.996 195.612 132.468 196.434 131.412C197.284 130.327 197.886 128.669 198.238 126.44L198.854 122.26H198.15C197.475 122.26 196.947 122.069 196.566 121.688C196.184 121.307 195.994 120.779 195.994 120.104C195.994 119.341 196.184 118.74 196.566 118.3C196.976 117.831 197.475 117.596 198.062 117.596H199.514C199.719 116.159 199.866 115.161 199.954 114.604L201.318 104.704C200.555 104.616 199.836 104.572 199.162 104.572C196.668 104.572 194.776 105.012 193.486 105.892C192.195 106.743 191.55 107.975 191.55 109.588C191.55 110.321 191.623 110.923 191.77 111.392C191.946 111.832 192.166 112.331 192.43 112.888C192.547 113.123 192.606 113.387 192.606 113.68C192.606 114.325 192.298 114.897 191.682 115.396C191.095 115.865 190.435 116.1 189.702 116.1C188.763 116.1 188.074 115.689 187.634 114.868C186.754 113.313 186.314 111.641 186.314 109.852C186.314 108.004 186.812 106.317 187.81 104.792C188.836 103.267 190.376 102.049 192.43 101.14C194.483 100.201 197.02 99.732 200.042 99.732C201.362 99.732 202.564 99.8053 203.65 99.952C204.764 100.099 205.982 100.377 207.302 100.788C208.739 101.228 209.458 102.049 209.458 103.252C209.458 104.865 208.768 105.672 207.39 105.672L205.674 117.508C209.106 117.156 211.892 115.689 214.034 113.108C216.204 110.497 218.008 106.963 219.446 102.504C219.71 101.683 220.15 101.052 220.766 100.612C221.411 100.172 222.218 99.952 223.186 99.952C224.007 99.952 224.638 100.143 225.078 100.524C225.547 100.876 225.782 101.389 225.782 102.064C225.782 102.269 225.723 102.607 225.606 103.076C224.139 107.916 222.042 111.759 219.314 114.604C216.586 117.449 213.608 119.341 210.382 120.28C211.496 120.544 212.406 120.94 213.11 121.468C213.843 121.996 214.459 122.656 214.958 123.448C215.456 124.211 216.028 125.281 216.674 126.66C217.583 128.596 218.434 129.975 219.226 130.796C220.018 131.588 220.942 131.984 221.998 131.984C222.936 131.984 223.831 131.676 224.682 131.06C225.532 130.415 226.603 129.329 227.894 127.804C228.246 127.393 228.642 127.188 229.082 127.188ZM232.977 137.22C231.657 137.22 230.571 136.619 229.721 135.416C228.899 134.184 228.489 132.659 228.489 130.84C228.489 128.64 228.635 126.631 228.929 124.812C229.222 122.964 229.706 121.013 230.381 118.96C230.674 118.08 231.085 117.449 231.613 117.068C232.141 116.687 232.977 116.496 234.121 116.496C234.766 116.496 235.206 116.599 235.441 116.804C235.705 117.009 235.837 117.317 235.837 117.728C235.837 117.963 235.675 118.755 235.353 120.104C235.059 121.189 234.825 122.172 234.649 123.052C234.062 126.132 233.769 128.185 233.769 129.212C233.769 129.828 233.842 130.268 233.989 130.532C234.135 130.767 234.37 130.884 234.693 130.884C235.133 130.884 235.675 130.444 236.321 129.564C236.995 128.684 237.699 127.349 238.433 125.56C239.195 123.771 239.929 121.571 240.633 118.96C240.867 118.08 241.219 117.449 241.689 117.068C242.187 116.687 242.921 116.496 243.889 116.496C244.563 116.496 245.033 116.584 245.297 116.76C245.561 116.907 245.693 117.2 245.693 117.64C245.693 118.373 245.326 120.383 244.593 123.668C243.771 127.423 243.361 129.74 243.361 130.62C243.361 131.177 243.478 131.617 243.713 131.94C243.947 132.233 244.255 132.38 244.637 132.38C245.223 132.38 245.913 132.028 246.705 131.324C247.526 130.591 248.611 129.417 249.961 127.804C250.313 127.393 250.709 127.188 251.149 127.188C251.53 127.188 251.823 127.364 252.029 127.716C252.263 128.068 252.381 128.552 252.381 129.168C252.381 130.341 252.102 131.251 251.545 131.896C250.283 133.451 248.919 134.727 247.453 135.724C246.015 136.721 244.373 137.22 242.525 137.22C241.117 137.22 240.075 136.677 239.401 135.592C238.755 134.507 238.433 132.981 238.433 131.016C237.934 133.011 237.186 134.551 236.189 135.636C235.191 136.692 234.121 137.22 232.977 137.22ZM273.101 127.276C273.482 127.276 273.776 127.467 273.981 127.848C274.216 128.2 274.333 128.655 274.333 129.212C274.333 129.887 274.23 130.415 274.025 130.796C273.82 131.177 273.497 131.515 273.057 131.808C270.534 133.509 268.686 134.771 267.513 135.592L264.697 137.484C263.582 143.556 262.116 148.323 260.297 151.784C258.508 155.275 256.22 157.02 253.433 157.02C251.937 157.02 250.72 156.551 249.781 155.612C248.842 154.703 248.373 153.5 248.373 152.004C248.373 149.921 249.194 147.677 250.837 145.272C252.48 142.896 255.56 139.963 260.077 136.472L260.341 134.756C259.842 135.548 259.182 136.164 258.361 136.604C257.569 137.015 256.777 137.22 255.985 137.22C254.166 137.22 252.714 136.56 251.629 135.24C250.544 133.92 250.001 132.189 250.001 130.048C250.001 127.701 250.544 125.487 251.629 123.404C252.714 121.292 254.152 119.605 255.941 118.344C257.76 117.053 259.681 116.408 261.705 116.408C262.35 116.408 262.776 116.54 262.981 116.804C263.216 117.039 263.406 117.479 263.553 118.124C264.11 118.007 264.756 117.948 265.489 117.948C266.222 117.948 266.736 118.065 267.029 118.3C267.352 118.505 267.513 118.931 267.513 119.576C267.513 119.928 267.498 120.207 267.469 120.412C267.352 121.321 266.985 123.624 266.369 127.32C266.252 128.024 266.12 128.801 265.973 129.652C265.856 130.473 265.724 131.353 265.577 132.292C267.836 130.532 270.006 128.977 272.089 127.628C272.47 127.393 272.808 127.276 273.101 127.276ZM257.569 132.776C258.244 132.776 258.889 132.365 259.505 131.544C260.121 130.723 260.561 129.549 260.825 128.024L262.233 120.5C261.03 120.529 259.916 120.999 258.889 121.908C257.862 122.788 257.041 123.961 256.425 125.428C255.809 126.895 255.501 128.449 255.501 130.092C255.501 131.001 255.677 131.676 256.029 132.116C256.41 132.556 256.924 132.776 257.569 132.776ZM253.917 152.752C254.65 152.752 255.472 151.872 256.381 150.112C257.32 148.352 258.214 145.551 259.065 141.708C256.806 143.644 255.178 145.389 254.181 146.944C253.184 148.499 252.685 149.863 252.685 151.036C252.685 151.535 252.773 151.945 252.949 152.268C253.154 152.591 253.477 152.752 253.917 152.752ZM288.315 116.496C288.99 116.496 289.459 116.584 289.723 116.76C289.987 116.936 290.119 117.229 290.119 117.64C290.119 118.344 289.738 120.852 288.975 125.164C288.3 129.3 287.904 131.749 287.787 132.512C286.702 140.051 285.206 146.02 283.299 150.42C281.392 154.82 278.855 157.02 275.687 157.02C274.191 157.02 272.974 156.551 272.035 155.612C271.096 154.703 270.627 153.5 270.627 152.004C270.627 150.625 270.935 149.217 271.551 147.78C272.196 146.343 273.37 144.685 275.071 142.808C276.802 140.96 279.236 138.833 282.375 136.428L282.507 135.416C282.712 134.331 282.947 132.776 283.211 130.752C282.624 132.864 281.803 134.477 280.747 135.592C279.691 136.677 278.576 137.22 277.403 137.22C276.083 137.22 274.998 136.619 274.147 135.416C273.326 134.184 272.915 132.659 272.915 130.84C272.915 128.64 273.062 126.631 273.355 124.812C273.648 122.964 274.132 121.013 274.807 118.96C275.1 118.08 275.511 117.449 276.039 117.068C276.567 116.687 277.403 116.496 278.547 116.496C279.192 116.496 279.632 116.599 279.867 116.804C280.131 117.009 280.263 117.317 280.263 117.728C280.263 117.963 280.102 118.755 279.779 120.104C279.486 121.189 279.251 122.172 279.075 123.052C278.84 124.255 278.635 125.413 278.459 126.528C278.283 127.613 278.195 128.508 278.195 129.212C278.195 130.327 278.503 130.884 279.119 130.884C279.559 130.884 280.102 130.444 280.747 129.564C281.422 128.684 282.126 127.349 282.859 125.56C283.622 123.771 284.355 121.571 285.059 118.96C285.294 118.08 285.646 117.449 286.115 117.068C286.614 116.687 287.347 116.496 288.315 116.496ZM276.171 152.752C276.904 152.752 277.726 151.901 278.635 150.2C279.544 148.499 280.454 145.668 281.363 141.708C279.104 143.615 277.462 145.345 276.435 146.9C275.438 148.484 274.939 149.863 274.939 151.036C274.939 151.535 275.027 151.945 275.203 152.268C275.408 152.591 275.731 152.752 276.171 152.752Z"
     fill="#E5E5E5"
     id="path6" />
  <path
     d="M103.657 189.912L112.868 170.137L115.241 169.469L115.593 168.133H107.577L107.226 169.469L110.337 170.207L103.253 185.781L99.0694 170.137L102.128 169.469L102.497 168.133H93.2334L92.8643 169.469L95.3077 170.207L100.933 190.439L103.657 189.912ZM130.691 175.375C130.199 174.754 129.021 174.443 127.158 174.443C125.798 174.443 124.421 174.877 123.027 175.744C121.644 176.6 120.49 177.842 119.564 179.471C118.65 181.1 118.193 183.004 118.193 185.184C118.193 186.238 118.334 187.158 118.615 187.943C118.908 188.729 119.318 189.332 119.845 189.754C120.384 190.164 121.011 190.369 121.726 190.369C122.57 190.369 123.367 190.117 124.117 189.613C124.867 189.098 125.453 188.453 125.875 187.68H126.086C126.015 187.926 125.98 188.154 125.98 188.365C125.98 188.951 126.191 189.42 126.613 189.771C127.035 190.123 127.591 190.299 128.283 190.299C129.045 190.299 129.929 190.111 130.937 189.736L131.254 188.523L129.918 188.312C129.601 188.266 129.373 188.137 129.232 187.926C129.103 187.715 129.039 187.352 129.039 186.836C129.039 186.227 129.168 185.066 129.425 183.355L130.691 175.375ZM126.173 186.467C125.693 187.006 125.218 187.422 124.75 187.715C124.293 187.996 123.759 188.137 123.15 188.137C122.447 188.137 121.914 187.832 121.55 187.223C121.199 186.613 121.023 185.664 121.023 184.375C121.023 183.098 121.211 181.832 121.586 180.578C121.972 179.324 122.511 178.293 123.203 177.484C123.906 176.676 124.703 176.271 125.593 176.271C126.543 176.271 127.24 176.477 127.685 176.887L126.173 186.467ZM135.506 168.818C136.033 168.818 136.432 168.895 136.701 169.047C136.971 169.188 137.106 169.475 137.106 169.908C137.106 169.99 137.094 170.125 137.07 170.312L134.557 186.59C134.475 187.188 134.434 187.645 134.434 187.961C134.434 188.77 134.627 189.361 135.014 189.736C135.412 190.111 136.069 190.299 136.983 190.299C137.44 190.299 137.891 190.24 138.336 190.123C138.793 190.018 139.168 189.889 139.461 189.736L139.602 188.312C139.098 188.324 138.694 188.312 138.389 188.277C138.096 188.23 137.85 188.107 137.651 187.908C137.463 187.709 137.369 187.398 137.369 186.977C137.369 186.273 137.504 185.066 137.774 183.355L139.848 170.242C139.918 169.762 139.953 169.328 139.953 168.941C139.953 168.227 139.778 167.699 139.426 167.359C139.086 167.02 138.483 166.85 137.615 166.85C136.619 166.85 135.723 167.043 134.926 167.43L134.768 168.836L135.506 168.818ZM146.632 166.85C145.635 166.85 144.739 167.043 143.942 167.43L143.784 168.836L144.522 168.818C145.05 168.818 145.448 168.895 145.717 169.047C145.987 169.188 146.122 169.475 146.122 169.908C146.122 169.99 146.11 170.125 146.087 170.312L143.081 189.121C143.538 189.543 144.153 189.859 144.926 190.07C145.7 190.293 146.444 190.404 147.159 190.404C148.94 190.404 150.54 189.93 151.958 188.98C153.376 188.031 154.477 186.789 155.262 185.254C156.048 183.719 156.44 182.113 156.44 180.438C156.44 179.301 156.282 178.275 155.966 177.361C155.661 176.447 155.186 175.721 154.542 175.182C153.897 174.631 153.1 174.355 152.151 174.355C151.366 174.355 150.546 174.648 149.69 175.234C148.835 175.809 148.173 176.5 147.704 177.309H147.493L147.985 175.199L148.864 170.242C148.946 169.668 148.987 169.229 148.987 168.924C148.987 168.221 148.811 167.699 148.46 167.359C148.108 167.02 147.499 166.85 146.632 166.85ZM153.505 181.51C153.505 182.658 153.294 183.777 152.872 184.867C152.462 185.945 151.887 186.824 151.149 187.504C150.423 188.184 149.602 188.523 148.688 188.523C148.137 188.523 147.616 188.412 147.124 188.189C146.643 187.955 146.292 187.65 146.069 187.275L147.546 178.645C148.026 178.059 148.495 177.613 148.952 177.309C149.421 177.004 149.989 176.852 150.657 176.852C151.63 176.852 152.344 177.303 152.801 178.205C153.27 179.107 153.505 180.209 153.505 181.51ZM164.279 181.07C164.689 180.227 165.193 179.459 165.79 178.768C166.4 178.064 167.05 177.713 167.741 177.713C168.058 177.713 168.327 177.754 168.55 177.836C168.784 177.918 169.019 178.076 169.253 178.311C169.581 177.982 169.827 177.613 169.991 177.203C170.156 176.793 170.238 176.389 170.238 175.99C170.238 175.51 170.085 175.111 169.781 174.795C169.488 174.479 169.077 174.32 168.55 174.32C167.988 174.32 167.443 174.566 166.915 175.059C166.388 175.551 165.913 176.184 165.491 176.957C165.07 177.719 164.724 178.51 164.454 179.33H164.261L164.665 177.309C164.747 176.852 164.788 176.506 164.788 176.271C164.788 175.592 164.589 175.094 164.191 174.777C163.792 174.449 163.171 174.285 162.327 174.285C161.331 174.285 160.435 174.479 159.638 174.865L159.48 176.271L160.218 176.254C160.734 176.254 161.126 176.33 161.396 176.482C161.665 176.635 161.8 176.939 161.8 177.396C161.8 177.549 161.794 177.666 161.783 177.748L160.165 190H163.101L164.279 181.07ZM181.451 186.344C180.994 186.777 180.514 187.129 180.01 187.398C179.506 187.668 178.89 187.803 178.164 187.803C177.496 187.803 177.015 187.609 176.722 187.223C176.43 186.836 176.283 186.268 176.283 185.518C176.283 185.084 176.33 184.557 176.424 183.936L177.355 177.818C177.437 177.361 177.478 176.922 177.478 176.5C177.478 175.797 177.303 175.275 176.951 174.936C176.599 174.596 175.99 174.426 175.123 174.426C174.127 174.426 173.23 174.619 172.433 175.006L172.275 176.412L173.014 176.395C173.529 176.395 173.922 176.471 174.191 176.623C174.472 176.775 174.613 177.074 174.613 177.52C174.613 177.578 174.601 177.701 174.578 177.889L173.488 185.482C173.394 186.115 173.347 186.66 173.347 187.117C173.347 188.242 173.588 189.074 174.068 189.613C174.56 190.141 175.299 190.404 176.283 190.404C177.244 190.404 178.164 190.105 179.043 189.508C179.933 188.898 180.678 188.195 181.275 187.398H181.486C181.404 187.762 181.363 188.113 181.363 188.453C181.363 189.695 182.049 190.316 183.42 190.316C183.853 190.316 184.275 190.264 184.685 190.158C185.107 190.053 185.547 189.918 186.004 189.754L186.32 188.541L185.16 188.33C184.832 188.283 184.58 188.184 184.404 188.031C184.24 187.879 184.158 187.639 184.158 187.311C184.158 187.24 184.17 187.123 184.193 186.959L185.441 177.818C185.512 177.186 185.547 176.764 185.547 176.553C185.547 175.826 185.377 175.293 185.037 174.953C184.697 174.602 184.088 174.426 183.209 174.426C182.213 174.426 181.316 174.619 180.519 175.006L180.361 176.412L181.099 176.395C181.615 176.395 182.008 176.471 182.277 176.623C182.558 176.775 182.699 177.074 182.699 177.52C182.699 177.578 182.687 177.701 182.664 177.889L181.451 186.344ZM192.102 174.285C191.106 174.285 190.209 174.479 189.412 174.865L189.254 176.271L189.993 176.254C190.508 176.254 190.901 176.33 191.17 176.482C191.452 176.635 191.592 176.934 191.592 177.379C191.592 177.438 191.58 177.561 191.557 177.748L189.94 190H192.805L194.475 178.363C194.932 177.93 195.412 177.578 195.916 177.309C196.42 177.039 197.036 176.904 197.762 176.904C198.43 176.904 198.911 177.098 199.204 177.484C199.496 177.871 199.643 178.439 199.643 179.189C199.643 179.623 199.596 180.15 199.502 180.771L198.606 186.537C198.512 187.1 198.465 187.568 198.465 187.943C198.465 188.74 198.664 189.326 199.063 189.701C199.461 190.064 200.118 190.246 201.032 190.246C201.489 190.246 201.94 190.188 202.385 190.07C202.842 189.965 203.217 189.836 203.51 189.684L203.651 188.26C203.147 188.271 202.743 188.26 202.438 188.225C202.145 188.178 201.899 188.055 201.7 187.855C201.512 187.656 201.418 187.346 201.418 186.924C201.418 186.232 201.553 185.043 201.823 183.355L202.438 179.225C202.543 178.592 202.596 178.023 202.596 177.52C202.596 175.375 201.612 174.303 199.643 174.303C198.682 174.303 197.756 174.607 196.866 175.217C195.987 175.814 195.248 176.512 194.651 177.309H194.44C194.534 176.875 194.58 176.518 194.58 176.236C194.58 175.568 194.375 175.076 193.965 174.76C193.555 174.443 192.934 174.285 192.102 174.285ZM218.714 175.375C218.222 174.754 217.044 174.443 215.181 174.443C213.821 174.443 212.444 174.877 211.05 175.744C209.667 176.6 208.513 177.842 207.587 179.471C206.673 181.1 206.216 183.004 206.216 185.184C206.216 186.238 206.356 187.158 206.638 187.943C206.931 188.729 207.341 189.332 207.868 189.754C208.407 190.164 209.034 190.369 209.749 190.369C210.593 190.369 211.39 190.117 212.14 189.613C212.89 189.098 213.476 188.453 213.897 187.68H214.108C214.038 187.926 214.003 188.154 214.003 188.365C214.003 188.951 214.214 189.42 214.636 189.771C215.058 190.123 215.614 190.299 216.306 190.299C217.067 190.299 217.952 190.111 218.96 189.736L219.276 188.523L217.94 188.312C217.624 188.266 217.395 188.137 217.255 187.926C217.126 187.715 217.061 187.352 217.061 186.836C217.061 186.227 217.19 185.066 217.448 183.355L218.714 175.375ZM214.196 186.467C213.716 187.006 213.241 187.422 212.772 187.715C212.315 187.996 211.782 188.137 211.173 188.137C210.47 188.137 209.936 187.832 209.573 187.223C209.222 186.613 209.046 185.664 209.046 184.375C209.046 183.098 209.233 181.832 209.608 180.578C209.995 179.324 210.534 178.293 211.226 177.484C211.929 176.676 212.726 176.271 213.616 176.271C214.565 176.271 215.263 176.477 215.708 176.887L214.196 186.467Z"
     fill="#E5E5E5"
     id="path8" />
</svg>
