<?xml version="1.0" encoding="UTF-8" standalone="no"?>
<!-- Created with Inkscape (http://www.inkscape.org/) -->

<svg
   xmlns:dc="http://purl.org/dc/elements/1.1/"
   xmlns:cc="http://creativecommons.org/ns#"
   xmlns:rdf="http://www.w3.org/1999/02/22-rdf-syntax-ns#"
   xmlns:svg="http://www.w3.org/2000/svg"
   xmlns="http://www.w3.org/2000/svg"
   xmlns:sodipodi="http://sodipodi.sourceforge.net/DTD/sodipodi-0.dtd"
   xmlns:inkscape="http://www.inkscape.org/namespaces/inkscape"
   width="230mm"
   height="230mm"
   viewBox="0 0 230 230"
   version="1.1"
   id="svg8"
   inkscape:version="0.92.5 (2060ec1f9f, 2020-04-08)"
   sodipodi:docname="Logo_Rifugio_Kugy_w.svg">
  <defs
     id="defs2">
    <clipPath
       id="clipPath3748"
       clipPathUnits="userSpaceOnUse">
      <path
         inkscape:connector-curvature="0"
         id="path3746"
         d="M 0,651.969 H 651.969 V 0 H 0 Z" />
    </clipPath>
  </defs>
  <sodipodi:namedview
     id="base"
     pagecolor="#ffffff"
     bordercolor="#666666"
     borderopacity="1.0"
     inkscape:pageopacity="0.0"
     inkscape:pageshadow="2"
     inkscape:zoom="0.98994949"
     inkscape:cx="704.92031"
     inkscape:cy="735.42691"
     inkscape:document-units="mm"
     inkscape:current-layer="layer1"
     showgrid="false"
     inkscape:window-width="1294"
     inkscape:window-height="704"
     inkscape:window-x="72"
     inkscape:window-y="27"
     inkscape:window-maximized="1" />
  <metadata
     id="metadata5">
    <rdf:RDF>
      <cc:Work
         rdf:about="">
        <dc:format>image/svg+xml</dc:format>
        <dc:type
           rdf:resource="http://purl.org/dc/dcmitype/StillImage" />
        <dc:title></dc:title>
      </cc:Work>
    </rdf:RDF>
  </metadata>
  <g
     inkscape:label="Livello 1"
     inkscape:groupmode="layer"
     id="layer1"
     transform="translate(0,-67)">
    <g
       transform="matrix(0.35277777,0,0,-0.35277777,0.04335962,297.0792)"
       inkscape:label="logo_K"
       id="g3740">
      <g
         id="g3742">
        <g
           clip-path="url(#clipPath3748)"
           id="g3744">
          <g
             transform="translate(387.2441,584.2195)"
             id="g3750">
            <path
               inkscape:connector-curvature="0"
               id="path3752"
               style="fill:#ffffff;fill-opacity:1;fill-rule:nonzero;stroke:none"
               d="m 0,0 c 3.192,-0.795 5.543,-0.024 6.7,4.62 l 4.252,17.069 c 1.156,4.645 -0.557,6.428 -3.751,7.225 -3.192,0.794 -5.543,0.023 -6.699,-4.621 L -3.751,7.224 C -4.908,2.579 -3.194,0.794 0,0" />
          </g>
          <g
             transform="translate(215.1909,596.1565)"
             id="g3754">
            <path
               inkscape:connector-curvature="0"
               id="path3756"
               style="fill:#ffffff;fill-opacity:1;fill-rule:nonzero;stroke:none"
               d="m 0,0 c -1.583,3.877 -4.312,4.701 -7.691,3.321 l -3.933,-1.607 4.529,-11.078 3.932,1.608 C 0.214,-6.375 1.584,-3.876 0,0" />
          </g>
          <g
             transform="translate(594.4717,440.9202)"
             id="g3758">
            <path
               inkscape:connector-curvature="0"
               id="path3760"
               style="fill:#ffffff;fill-opacity:1;fill-rule:nonzero;stroke:none"
               d="m 0,0 -0.049,0.11 -17.637,-3.267 3.281,-7.511 z" />
          </g>
          <g
             transform="translate(612.5928,370.5398)"
             id="g3762">
            <path
               inkscape:connector-curvature="0"
               id="path3764"
               style="fill:#ffffff;fill-opacity:1;fill-rule:nonzero;stroke:none"
               d="M 0,0 C 3.121,0.568 4.79,2.758 4.093,6.585 L 3.504,9.822 -6.622,7.978 -6.108,5.152 C -5.443,1.502 -2.884,-0.526 0,0" />
          </g>
          <g
             transform="translate(615.6992,331.9348)"
             id="g3766">
            <path
               inkscape:connector-curvature="0"
               id="path3768"
               style="fill:#ffffff;fill-opacity:1;fill-rule:nonzero;stroke:none"
               d="M 0,0 C 4.183,0.222 5.857,2.528 5.664,6.172 L 5.439,10.414 -6.509,9.78 -6.285,5.539 C -6.092,1.895 -4.182,-0.221 0,0" />
          </g>
          <g
             transform="translate(221.2856,278.7937)"
             id="g3770">
            <path
               inkscape:connector-curvature="0"
               id="path3772"
               style="fill:#ffffff;fill-opacity:1;fill-rule:nonzero;stroke:none"
               d="m 0,0 c -5.142,3.932 -11.729,5.421 -18.051,4.074 -5.77,-1.227 -10.798,-4.708 -14,-9.636 -0.404,-0.628 -1.311,-0.628 -1.72,0 -3.202,4.928 -8.23,8.409 -14.006,9.636 -6.304,1.34 -12.88,-0.136 -18.015,-4.05 -0.024,-0.017 -0.042,-0.036 -0.065,-0.053 -8.178,-7.009 -8.166,-20.933 0.035,-34.88 0.753,-1.358 1.601,-2.656 2.544,-3.884 6.766,-8.995 19.177,-17.647 29.869,-23.749 0.314,-0.178 0.694,-0.178 1.008,0 10.644,6.048 22.966,14.658 29.727,23.583 1.002,1.275 1.897,2.627 2.68,4.044 C 8.236,-20.944 8.236,-6.997 0,0" />
          </g>
          <g
             transform="translate(594.9961,366.3025)"
             id="g3774">
            <path
               inkscape:connector-curvature="0"
               id="path3776"
               style="fill:#ffffff;fill-opacity:1;fill-rule:nonzero;stroke:none"
               d="M 0,0 C 4.064,0.739 5.55,3.929 4.778,8.167 L 4.264,10.994 -7.982,8.763 -7.359,5.349 C -6.588,1.11 -3.707,-0.677 0,0" />
          </g>
          <g
             transform="translate(600.8662,218.4207)"
             id="g3778">
            <path
               inkscape:connector-curvature="0"
               id="path3780"
               style="fill:#ffffff;fill-opacity:1;fill-rule:nonzero;stroke:none"
               d="M 0,0 -14.979,9.869 -17.819,2.18 -0.041,-0.112 Z" />
          </g>
          <g
             transform="translate(597.0527,293.5925)"
             id="g3782">
            <path
               inkscape:connector-curvature="0"
               id="path3784"
               style="fill:#ffffff;fill-opacity:1;fill-rule:nonzero;stroke:none"
               d="m 0,0 30.12,-2.423 -0.662,-8.228 -30.178,2.426 c -9.483,0.762 -13.029,6.691 -12.347,15.159 0.68,8.47 5.123,13.696 14.606,12.933 L 31.718,17.438 31.056,9.209 0.937,11.632 C -3.179,11.963 -5.47,10.347 -5.791,6.35 -6.112,2.354 -4.114,0.331 0,0 m 25.282,-34.064 -27.495,-5.629 -0.026,-0.117 24.991,-5.582 -1.643,-7.356 -42.158,9.413 1.722,7.709 29.962,6.244 0.025,0.116 -27.21,6.078 1.643,7.356 42.158,-9.415 z m -14.6,-49.45 -44.129,5.202 2.737,7.41 9.256,-1.187 3.96,10.719 -7.722,5.34 2.757,7.464 36.811,-25.014 z m -142.635,-139.054 c -63.45,-1.121 -86.821,32.724 -91.496,38.735 -4.675,6.011 -100.178,139.582 -100.178,139.582 l -68.102,-55.332 v 11.107 h -33.879 v -38.633 l -36.934,-30.009 v 316.564 c 0,0 1.316,40.721 -13.023,56.767 -14.025,15.695 -35.73,18.033 -35.73,18.033 0,0 56.1,24.711 110.196,-16.697 54.097,-41.407 50.089,-82.814 50.089,-82.814 l -0.668,-168.967 c 0,0 93.5,68.121 116.875,88.824 23.375,20.704 32.058,42.075 31.39,55.432 -0.668,13.357 -7.944,24.711 -20.704,24.711 h -22.707 V 148.76 H -79.86 l -0.001,-14.025 h -24.18 c -4.789,0 -20.064,-1.586 -39.479,-17.88 -19.741,-16.568 -34.757,-31.949 -46.578,-44.189 -9.209,-9.536 -30.003,-31.184 -30.342,-41.176 -0.838,-24.691 113.866,-171.244 117.873,-175.919 4.007,-4.675 21.038,-26.339 42.326,-28.592 16.063,-1.702 29.803,3.881 29.803,3.881 0,0 -40.072,-52.343 -101.515,-53.428 m -260.678,534.563 c 9.194,3.757 15.38,1.114 18.458,-6.418 2.037,-4.985 1.736,-9.309 -1.873,-12.658 l 14.821,-14.755 -8.196,-3.351 -13.302,13.568 -3.654,-1.495 6.654,-16.283 -7.643,-3.123 -16.342,39.987 z m 33.104,11.511 12.354,-41.397 -7.913,-2.362 -12.354,41.398 z m 33.14,7.652 1.485,-7.146 -13.004,-2.7 2.018,-9.723 10.193,2.116 1.483,-7.147 -10.191,-2.116 3.793,-18.276 -8.083,-1.678 -8.78,42.291 z m 19.398,2.443 2.522,-30.108 c 0.345,-4.113 2.314,-6.11 6.308,-5.776 3.994,0.335 5.662,2.637 5.318,6.75 l -2.522,30.108 8.229,0.689 2.526,-30.168 c 0.794,-9.479 -4.476,-13.943 -12.942,-14.652 -8.466,-0.709 -14.345,2.822 -15.139,12.3 l -2.527,30.168 z m 31.792,-27.423 0.765,15.417 c 0.529,10.636 6.335,14.182 14.342,13.783 8.426,-0.418 12.727,-5.482 12.54,-15.297 l -8.247,0.408 c 0.276,5.558 -1.667,7.451 -4.654,7.599 -3.287,0.164 -5.445,-1.046 -5.681,-5.827 l -0.874,-17.568 c -0.236,-4.779 1.789,-6.198 5.076,-6.361 3.108,-0.155 5.132,2.021 5.317,5.726 l 0.13,2.629 -5.795,0.288 0.338,6.812 14.043,-0.698 -1.099,-22.109 -4.303,0.214 -1.077,3.648 c -2.335,-2.4 -4.809,-3.955 -7.916,-3.8 -8.006,0.397 -13.433,4.499 -12.905,15.136 m 91.889,-52.874 41.386,-63.967 17.843,22.668 43.18,-54.859 h -40.196 -46.165 -78.26 z m -51.132,79.155 8.168,-1.208 -6.317,-42.737 -8.169,1.207 z m 13.128,-31.567 3.733,14.979 c 2.574,10.334 8.958,12.691 16.736,10.753 7.781,-1.938 12.313,-7.014 9.739,-17.348 l -3.732,-14.98 c -2.574,-10.334 -8.958,-12.691 -16.737,-10.753 -7.78,1.938 -12.312,7.014 -9.739,17.349 m 64.98,10.6 7.47,-3.518 -7.597,-16.132 0.108,-0.05 17.288,11.568 8.172,-3.851 -17.486,-11.011 0.217,-28.608 -8.391,3.953 -0.07,20.073 -5.014,-3.062 -5.635,-11.964 -7.469,3.519 z m 42.721,-22.312 -16.423,-25.359 c -2.245,-3.465 -1.909,-6.249 1.455,-8.427 3.364,-2.18 6.092,-1.379 8.336,2.085 l 16.425,25.357 6.929,-4.487 -16.457,-25.409 c -5.171,-7.984 -12.07,-8.292 -19.201,-3.671 -7.13,4.616 -9.621,11.006 -4.449,18.989 l 16.457,25.409 z m 38.179,-27.303 c 6.407,-5.49 6.705,-12.128 0.547,-19.773 l -6.269,5.373 c 3.62,4.225 3.244,6.911 0.972,8.857 -2.498,2.143 -4.945,2.506 -8.059,-1.129 L -99.688,241.85 c -3.116,-3.635 -2.381,-5.997 0.117,-8.139 2.362,-2.024 5.295,-1.544 7.709,1.273 l 1.713,1.998 -4.407,3.778 4.44,5.178 10.676,-9.149 -14.408,-16.809 -3.27,2.803 1.383,3.543 c -3.317,-0.468 -6.224,-0.181 -8.586,1.843 -6.088,5.217 -7.867,11.785 -0.936,19.871 l 10.046,11.72 c 6.93,8.087 13.692,7.334 19.779,2.117 m 17.007,-15.977 5.905,-6.519 -8.045,-17.057 17.607,6.501 5.905,-6.519 -26.985,-8.537 -12.95,-11.731 -5.543,6.121 12.949,11.729 z m 42.419,-53.285 -22.557,-22.413 0.062,-0.102 30.353,9.433 4.158,-6.925 -42.705,-12.805 -4.837,8.054 31.337,31.733 z m 24.109,-46.429 -35.415,-26.834 -3.163,7.237 7.495,5.558 -4.575,10.473 -9.267,-1.503 -3.187,7.292 43.871,7.48 z m 9.735,-27.03 -34.343,-10.466 3.873,-12.707 -6.983,-2.129 -6.28,20.606 41.326,12.595 z m 8.517,-34.46 C 27.941,75.983 25.203,70.314 17.903,68.985 14.195,68.309 10.801,69.577 8.119,72.616 6.107,67.627 4.075,65.432 -1.224,64.467 -9.642,62.934 -14.497,67.889 -16.062,76.482 l -2.167,11.892 42.503,7.742 z M 31.093,45.413 C 31.618,35.495 27.089,30.522 18.964,30.091 13.587,29.807 9.602,31.512 7.626,36.022 l -18.806,-9.145 -0.468,8.842 17.184,8.099 -0.21,3.943 -17.564,-0.929 -0.437,8.244 43.135,2.285 z m -302.407,313.412 c -180.037,0 -325.985,-145.949 -325.985,-325.985 0,-180.036 145.948,-325.984 325.985,-325.984 180.036,0 325.984,145.948 325.984,325.984 0,180.036 -145.948,325.985 -325.984,325.985" />
          </g>
        </g>
      </g>
    </g>
  </g>
</svg>
