<?xml version="1.0" encoding="UTF-8" standalone="no"?>
<svg
   xmlns:dc="http://purl.org/dc/elements/1.1/"
   xmlns:cc="http://creativecommons.org/ns#"
   xmlns:rdf="http://www.w3.org/1999/02/22-rdf-syntax-ns#"
   xmlns:svg="http://www.w3.org/2000/svg"
   xmlns="http://www.w3.org/2000/svg"
   xmlns:sodipodi="http://sodipodi.sourceforge.net/DTD/sodipodi-0.dtd"
   xmlns:inkscape="http://www.inkscape.org/namespaces/inkscape"
   width="326"
   height="207"
   viewBox="0 0 326 207"
   fill="none"
   version="1.1"
   id="svg10"
   sodipodi:docname="logo-Rifugio-Kugy-bg-light.svg"
   inkscape:version="1.0 (6e3e5246a0, 2020-05-07)">
  <metadata
     id="metadata16">
    <rdf:RDF>
      <cc:Work
         rdf:about="">
        <dc:format>image/svg+xml</dc:format>
        <dc:type
           rdf:resource="http://purl.org/dc/dcmitype/StillImage" />
      </cc:Work>
    </rdf:RDF>
  </metadata>
  <defs
     id="defs14" />
  <sodipodi:namedview
     inkscape:document-rotation="0"
     pagecolor="#ffffff"
     bordercolor="#666666"
     borderopacity="1"
     objecttolerance="10"
     gridtolerance="10"
     guidetolerance="10"
     inkscape:pageopacity="0"
     inkscape:pageshadow="2"
     inkscape:window-width="1299"
     inkscape:window-height="713"
     id="namedview12"
     showgrid="false"
     inkscape:zoom="2.4637681"
     inkscape:cx="125.53238"
     inkscape:cy="103.5"
     inkscape:window-x="67"
     inkscape:window-y="27"
     inkscape:window-maximized="1"
     inkscape:current-layer="svg10" />
  <path
     d="M64.5953 136.188C64.9767 136.188 65.27 136.364 65.4753 136.716C65.71 137.068 65.8273 137.552 65.8273 138.168C65.8273 139.312 65.5487 140.221 64.9913 140.896C63.5833 142.597 62.1607 143.917 60.7233 144.856C59.286 145.765 57.5847 146.22 55.6193 146.22C53.7127 146.22 52.0847 145.707 50.7353 144.68C49.4153 143.653 48.154 141.893 46.9513 139.4C45.9833 137.405 45.2207 135.939 44.6633 135C44.106 134.032 43.5487 133.343 42.9913 132.932C42.4633 132.521 41.8033 132.272 41.0113 132.184C40.894 132.8 40.5567 134.736 39.9993 137.992C39.7647 139.459 39.618 140.353 39.5593 140.676C39.266 142.465 38.6793 143.844 37.7993 144.812C36.9193 145.751 35.5847 146.22 33.7953 146.22C31.83 146.22 30.0847 145.648 28.5593 144.504C27.0633 143.331 25.9047 141.717 25.0833 139.664C24.262 137.581 23.8513 135.22 23.8513 132.58C23.8513 127.652 24.702 123.399 26.4033 119.82C28.134 116.241 30.5393 113.513 33.6193 111.636C36.7287 109.729 40.3073 108.776 44.3553 108.776C47.1713 108.776 49.5327 109.201 51.4393 110.052C53.346 110.903 54.754 112.076 55.6633 113.572C56.602 115.068 57.0713 116.755 57.0713 118.632C57.0713 120.275 56.6753 121.888 55.8833 123.472C55.1207 125.027 53.962 126.405 52.4073 127.608C50.8527 128.811 48.9607 129.705 46.7313 130.292C48.1393 130.673 49.2247 131.289 49.9873 132.14C50.75 132.991 51.5127 134.237 52.2753 135.88C53.0967 137.64 53.9033 138.931 54.6953 139.752C55.5167 140.573 56.4553 140.984 57.5113 140.984C58.45 140.984 59.3447 140.676 60.1953 140.06C61.046 139.415 62.1167 138.329 63.4073 136.804C63.7593 136.393 64.1553 136.188 64.5953 136.188ZM34.9393 132.14C33.942 132.14 33.2527 131.905 32.8713 131.436C32.5193 130.967 32.3433 130.439 32.3433 129.852C32.3433 129.148 32.5633 128.591 33.0033 128.18C33.4727 127.769 34.0007 127.564 34.5873 127.564H35.6873C36.1567 124.689 36.5967 122.211 37.0073 120.128C37.3887 118.221 38.6207 117.268 40.7033 117.268C42.3753 117.268 43.2113 118.016 43.2113 119.512C43.2113 119.835 43.1967 120.084 43.1673 120.26L41.8473 127.564C43.4313 127.476 44.8687 127.095 46.1593 126.42C47.4793 125.745 48.5207 124.807 49.2833 123.604C50.0753 122.401 50.4713 121.037 50.4713 119.512C50.4713 117.664 49.8407 116.212 48.5793 115.156C47.318 114.1 45.47 113.572 43.0353 113.572C40.1607 113.572 37.638 114.291 35.4673 115.728C33.326 117.136 31.654 119.248 30.4513 122.064C29.2487 124.851 28.6473 128.253 28.6473 132.272C28.6473 134.149 28.838 135.763 29.2193 137.112C29.6007 138.461 30.07 139.473 30.6273 140.148C31.1847 140.823 31.7127 141.16 32.2113 141.16C32.5927 141.16 32.9007 140.969 33.1353 140.588C33.3993 140.207 33.6047 139.591 33.7513 138.74L34.9393 132.14ZM69.7822 122.592C68.5502 122.592 67.6262 122.313 67.0102 121.756C66.3942 121.169 66.0862 120.363 66.0862 119.336C66.0862 118.309 66.4822 117.459 67.2742 116.784C68.0955 116.08 69.1075 115.728 70.3102 115.728C71.3955 115.728 72.2755 115.992 72.9502 116.52C73.6248 117.048 73.9622 117.796 73.9622 118.764C73.9622 119.937 73.5808 120.876 72.8182 121.58C72.0555 122.255 71.0435 122.592 69.7822 122.592ZM69.4302 146.22C67.5235 146.22 66.1302 145.545 65.2502 144.196C64.3995 142.847 63.9742 141.057 63.9742 138.828C63.9742 137.508 64.1355 135.821 64.4582 133.768C64.8102 131.685 65.2502 129.749 65.7782 127.96C66.0422 127.021 66.3942 126.376 66.8342 126.024C67.2742 125.672 67.9782 125.496 68.9462 125.496C70.4422 125.496 71.1902 125.995 71.1902 126.992C71.1902 127.725 70.9115 129.427 70.3542 132.096C69.6502 135.323 69.2982 137.508 69.2982 138.652C69.2982 139.532 69.4155 140.207 69.6502 140.676C69.8848 141.145 70.2808 141.38 70.8382 141.38C71.3662 141.38 72.0262 141.013 72.8182 140.28C73.6102 139.547 74.6662 138.388 75.9862 136.804C76.3382 136.393 76.7342 136.188 77.1742 136.188C77.5555 136.188 77.8488 136.364 78.0542 136.716C78.2888 137.068 78.4062 137.552 78.4062 138.168C78.4062 139.341 78.1275 140.251 77.5702 140.896C74.6662 144.445 71.9528 146.22 69.4302 146.22ZM93.7326 133.68C94.554 133.68 94.9646 134.296 94.9646 135.528C94.9646 137.845 93.146 139.004 89.5086 139.004C88.8046 139.004 87.7926 138.872 86.4726 138.608C86.854 140.427 87.162 142.451 87.3966 144.68C87.6606 146.88 87.7926 148.699 87.7926 150.136C87.7926 153.304 87.2793 155.724 86.2526 157.396C85.226 159.068 83.8766 159.904 82.2046 159.904C80.0926 159.904 78.582 158.408 77.6726 155.416C76.7926 152.424 76.3526 147.907 76.3526 141.864C76.3526 136.232 76.954 130.527 78.1566 124.748C79.3886 118.94 81.0606 114.144 83.1726 110.36C85.314 106.547 87.6606 104.64 90.2126 104.64C91.5913 104.64 92.662 105.256 93.4246 106.488C94.2166 107.72 94.6126 109.377 94.6126 111.46C94.6126 118.353 90.4913 125.863 82.2486 133.988C81.9553 136.863 81.8086 139.385 81.8086 141.556C81.8086 144.577 81.9113 147.672 82.1166 150.84C82.322 154.037 82.6593 155.636 83.1286 155.636C84.0086 155.636 84.4486 154.111 84.4486 151.06C84.4486 148.772 84.2873 146.557 83.9646 144.416C83.6713 142.275 83.2606 140.016 82.7326 137.64C82.7033 137.259 82.8206 136.775 83.0846 136.188C83.378 135.601 83.73 135.088 84.1406 134.648C84.5513 134.208 84.918 133.988 85.2406 133.988C85.8273 133.988 86.5313 134.017 87.3526 134.076C87.6166 134.105 87.9246 134.12 88.2766 134.12C89.45 134.12 90.7553 134.017 92.1926 133.812C92.4273 133.783 92.6766 133.753 92.9406 133.724C93.2046 133.695 93.4686 133.68 93.7326 133.68ZM89.2886 108.996C88.7606 108.996 88.1006 109.891 87.3086 111.68C86.546 113.469 85.7833 115.845 85.0206 118.808C84.258 121.741 83.598 124.851 83.0406 128.136C85.3873 125.467 87.1913 122.695 88.4526 119.82C89.714 116.916 90.3593 114.203 90.3886 111.68C90.3886 109.891 90.022 108.996 89.2886 108.996ZM97.8934 146.22C96.5734 146.22 95.488 145.619 94.6374 144.416C93.816 143.184 93.4054 141.659 93.4054 139.84C93.4054 137.64 93.552 135.631 93.8454 133.812C94.1387 131.964 94.6227 130.013 95.2974 127.96C95.5907 127.08 96.0014 126.449 96.5294 126.068C97.0574 125.687 97.8934 125.496 99.0374 125.496C99.6827 125.496 100.123 125.599 100.357 125.804C100.621 126.009 100.753 126.317 100.753 126.728C100.753 126.963 100.592 127.755 100.269 129.104C99.976 130.189 99.7414 131.172 99.5654 132.052C98.9787 135.132 98.6854 137.185 98.6854 138.212C98.6854 138.828 98.7587 139.268 98.9054 139.532C99.052 139.767 99.2867 139.884 99.6094 139.884C100.049 139.884 100.592 139.444 101.237 138.564C101.912 137.684 102.616 136.349 103.349 134.56C104.112 132.771 104.845 130.571 105.549 127.96C105.784 127.08 106.136 126.449 106.605 126.068C107.104 125.687 107.837 125.496 108.805 125.496C109.48 125.496 109.949 125.584 110.213 125.76C110.477 125.907 110.609 126.2 110.609 126.64C110.609 127.373 110.243 129.383 109.509 132.668C108.688 136.423 108.277 138.74 108.277 139.62C108.277 140.177 108.395 140.617 108.629 140.94C108.864 141.233 109.172 141.38 109.553 141.38C110.14 141.38 110.829 141.028 111.621 140.324C112.443 139.591 113.528 138.417 114.877 136.804C115.229 136.393 115.625 136.188 116.065 136.188C116.447 136.188 116.74 136.364 116.945 136.716C117.18 137.068 117.297 137.552 117.297 138.168C117.297 139.341 117.019 140.251 116.461 140.896C115.2 142.451 113.836 143.727 112.369 144.724C110.932 145.721 109.289 146.22 107.441 146.22C106.033 146.22 104.992 145.677 104.317 144.592C103.672 143.507 103.349 141.981 103.349 140.016C102.851 142.011 102.103 143.551 101.105 144.636C100.108 145.692 99.0374 146.22 97.8934 146.22ZM138.018 136.276C138.399 136.276 138.692 136.467 138.898 136.848C139.132 137.2 139.25 137.655 139.25 138.212C139.25 138.887 139.147 139.415 138.942 139.796C138.736 140.177 138.414 140.515 137.974 140.808C135.451 142.509 133.603 143.771 132.43 144.592L129.614 146.484C128.499 152.556 127.032 157.323 125.214 160.784C123.424 164.275 121.136 166.02 118.35 166.02C116.854 166.02 115.636 165.551 114.698 164.612C113.759 163.703 113.29 162.5 113.29 161.004C113.29 158.921 114.111 156.677 115.754 154.272C117.396 151.896 120.476 148.963 124.994 145.472L125.258 143.756C124.759 144.548 124.099 145.164 123.278 145.604C122.486 146.015 121.694 146.22 120.902 146.22C119.083 146.22 117.631 145.56 116.546 144.24C115.46 142.92 114.918 141.189 114.918 139.048C114.918 136.701 115.46 134.487 116.546 132.404C117.631 130.292 119.068 128.605 120.858 127.344C122.676 126.053 124.598 125.408 126.622 125.408C127.267 125.408 127.692 125.54 127.898 125.804C128.132 126.039 128.323 126.479 128.47 127.124C129.027 127.007 129.672 126.948 130.406 126.948C131.139 126.948 131.652 127.065 131.946 127.3C132.268 127.505 132.43 127.931 132.43 128.576C132.43 128.928 132.415 129.207 132.386 129.412C132.268 130.321 131.902 132.624 131.286 136.32C131.168 137.024 131.036 137.801 130.89 138.652C130.772 139.473 130.64 140.353 130.494 141.292C132.752 139.532 134.923 137.977 137.006 136.628C137.387 136.393 137.724 136.276 138.018 136.276ZM122.486 141.776C123.16 141.776 123.806 141.365 124.422 140.544C125.038 139.723 125.478 138.549 125.742 137.024L127.15 129.5C125.947 129.529 124.832 129.999 123.806 130.908C122.779 131.788 121.958 132.961 121.342 134.428C120.726 135.895 120.418 137.449 120.418 139.092C120.418 140.001 120.594 140.676 120.946 141.116C121.327 141.556 121.84 141.776 122.486 141.776ZM118.834 161.752C119.567 161.752 120.388 160.872 121.298 159.112C122.236 157.352 123.131 154.551 123.982 150.708C121.723 152.644 120.095 154.389 119.098 155.944C118.1 157.499 117.602 158.863 117.602 160.036C117.602 160.535 117.69 160.945 117.866 161.268C118.071 161.591 118.394 161.752 118.834 161.752ZM143.596 122.592C142.364 122.592 141.44 122.313 140.824 121.756C140.208 121.169 139.9 120.363 139.9 119.336C139.9 118.309 140.296 117.459 141.088 116.784C141.909 116.08 142.921 115.728 144.124 115.728C145.209 115.728 146.089 115.992 146.764 116.52C147.438 117.048 147.776 117.796 147.776 118.764C147.776 119.937 147.394 120.876 146.632 121.58C145.869 122.255 144.857 122.592 143.596 122.592ZM143.244 146.22C141.337 146.22 139.944 145.545 139.064 144.196C138.213 142.847 137.788 141.057 137.788 138.828C137.788 137.508 137.949 135.821 138.272 133.768C138.624 131.685 139.064 129.749 139.592 127.96C139.856 127.021 140.208 126.376 140.648 126.024C141.088 125.672 141.792 125.496 142.76 125.496C144.256 125.496 145.004 125.995 145.004 126.992C145.004 127.725 144.725 129.427 144.168 132.096C143.464 135.323 143.112 137.508 143.112 138.652C143.112 139.532 143.229 140.207 143.464 140.676C143.698 141.145 144.094 141.38 144.652 141.38C145.18 141.38 145.84 141.013 146.632 140.28C147.424 139.547 148.48 138.388 149.8 136.804C150.152 136.393 150.548 136.188 150.988 136.188C151.369 136.188 151.662 136.364 151.868 136.716C152.102 137.068 152.22 137.552 152.22 138.168C152.22 139.341 151.941 140.251 151.384 140.896C148.48 144.445 145.766 146.22 143.244 146.22ZM157.856 146.22C156.125 146.22 154.644 145.795 153.412 144.944C152.209 144.064 151.3 142.92 150.684 141.512C150.068 140.104 149.76 138.593 149.76 136.98C149.76 134.751 150.17 132.771 150.992 131.04C151.842 129.28 152.986 127.916 154.424 126.948C155.861 125.951 157.474 125.452 159.264 125.452C160.994 125.452 162.476 125.892 163.708 126.772C164.94 127.623 165.864 128.752 166.48 130.16C167.096 131.568 167.404 133.079 167.404 134.692C167.404 136.921 166.978 138.916 166.128 140.676C165.277 142.407 164.118 143.771 162.652 144.768C161.214 145.736 159.616 146.22 157.856 146.22ZM158.34 141.468C159.337 141.468 160.173 140.925 160.848 139.84C161.552 138.755 161.904 137.171 161.904 135.088C161.904 133.475 161.61 132.257 161.024 131.436C160.437 130.615 159.733 130.204 158.912 130.204C157.856 130.204 156.976 130.747 156.272 131.832C155.597 132.888 155.26 134.472 155.26 136.584C155.26 138.256 155.553 139.488 156.14 140.28C156.726 141.072 157.46 141.468 158.34 141.468ZM229.082 136.188C229.463 136.188 229.756 136.364 229.962 136.716C230.196 137.068 230.314 137.552 230.314 138.168C230.314 139.312 230.035 140.221 229.478 140.896C228.07 142.597 226.647 143.917 225.21 144.856C223.772 145.765 222.071 146.22 220.106 146.22C217.935 146.22 216.16 145.589 214.782 144.328C213.403 143.037 212.112 141.043 210.91 138.344C210.03 136.408 209.296 134.971 208.71 134.032C208.152 133.064 207.595 132.389 207.038 132.008C206.48 131.597 205.776 131.348 204.926 131.26L204.442 134.516C203.826 138.711 202.623 141.732 200.834 143.58C199.074 145.428 196.639 146.352 193.53 146.352C191.506 146.352 189.702 145.868 188.118 144.9C186.563 143.903 185.478 142.641 184.862 141.116C184.656 140.588 184.554 140.016 184.554 139.4C184.554 138.52 184.759 137.757 185.17 137.112C185.58 136.467 186.108 136.144 186.754 136.144C187.135 136.144 187.458 136.247 187.722 136.452C187.986 136.628 188.235 136.951 188.47 137.42C189.379 139.121 190.171 140.309 190.846 140.984C191.55 141.659 192.415 141.996 193.442 141.996C194.615 141.996 195.612 141.468 196.434 140.412C197.284 139.327 197.886 137.669 198.238 135.44L198.854 131.26H198.15C197.475 131.26 196.947 131.069 196.566 130.688C196.184 130.307 195.994 129.779 195.994 129.104C195.994 128.341 196.184 127.74 196.566 127.3C196.976 126.831 197.475 126.596 198.062 126.596H199.514C199.719 125.159 199.866 124.161 199.954 123.604L201.318 113.704C200.555 113.616 199.836 113.572 199.162 113.572C196.668 113.572 194.776 114.012 193.486 114.892C192.195 115.743 191.55 116.975 191.55 118.588C191.55 119.321 191.623 119.923 191.77 120.392C191.946 120.832 192.166 121.331 192.43 121.888C192.547 122.123 192.606 122.387 192.606 122.68C192.606 123.325 192.298 123.897 191.682 124.396C191.095 124.865 190.435 125.1 189.702 125.1C188.763 125.1 188.074 124.689 187.634 123.868C186.754 122.313 186.314 120.641 186.314 118.852C186.314 117.004 186.812 115.317 187.81 113.792C188.836 112.267 190.376 111.049 192.43 110.14C194.483 109.201 197.02 108.732 200.042 108.732C201.362 108.732 202.564 108.805 203.65 108.952C204.764 109.099 205.982 109.377 207.302 109.788C208.739 110.228 209.458 111.049 209.458 112.252C209.458 113.865 208.768 114.672 207.39 114.672L205.674 126.508C209.106 126.156 211.892 124.689 214.034 122.108C216.204 119.497 218.008 115.963 219.446 111.504C219.71 110.683 220.15 110.052 220.766 109.612C221.411 109.172 222.218 108.952 223.186 108.952C224.007 108.952 224.638 109.143 225.078 109.524C225.547 109.876 225.782 110.389 225.782 111.064C225.782 111.269 225.723 111.607 225.606 112.076C224.139 116.916 222.042 120.759 219.314 123.604C216.586 126.449 213.608 128.341 210.382 129.28C211.496 129.544 212.406 129.94 213.11 130.468C213.843 130.996 214.459 131.656 214.958 132.448C215.456 133.211 216.028 134.281 216.674 135.66C217.583 137.596 218.434 138.975 219.226 139.796C220.018 140.588 220.942 140.984 221.998 140.984C222.936 140.984 223.831 140.676 224.682 140.06C225.532 139.415 226.603 138.329 227.894 136.804C228.246 136.393 228.642 136.188 229.082 136.188ZM232.977 146.22C231.657 146.22 230.571 145.619 229.721 144.416C228.899 143.184 228.489 141.659 228.489 139.84C228.489 137.64 228.635 135.631 228.929 133.812C229.222 131.964 229.706 130.013 230.381 127.96C230.674 127.08 231.085 126.449 231.613 126.068C232.141 125.687 232.977 125.496 234.121 125.496C234.766 125.496 235.206 125.599 235.441 125.804C235.705 126.009 235.837 126.317 235.837 126.728C235.837 126.963 235.675 127.755 235.353 129.104C235.059 130.189 234.825 131.172 234.649 132.052C234.062 135.132 233.769 137.185 233.769 138.212C233.769 138.828 233.842 139.268 233.989 139.532C234.135 139.767 234.37 139.884 234.693 139.884C235.133 139.884 235.675 139.444 236.321 138.564C236.995 137.684 237.699 136.349 238.433 134.56C239.195 132.771 239.929 130.571 240.633 127.96C240.867 127.08 241.219 126.449 241.689 126.068C242.187 125.687 242.921 125.496 243.889 125.496C244.563 125.496 245.033 125.584 245.297 125.76C245.561 125.907 245.693 126.2 245.693 126.64C245.693 127.373 245.326 129.383 244.593 132.668C243.771 136.423 243.361 138.74 243.361 139.62C243.361 140.177 243.478 140.617 243.713 140.94C243.947 141.233 244.255 141.38 244.637 141.38C245.223 141.38 245.913 141.028 246.705 140.324C247.526 139.591 248.611 138.417 249.961 136.804C250.313 136.393 250.709 136.188 251.149 136.188C251.53 136.188 251.823 136.364 252.029 136.716C252.263 137.068 252.381 137.552 252.381 138.168C252.381 139.341 252.102 140.251 251.545 140.896C250.283 142.451 248.919 143.727 247.453 144.724C246.015 145.721 244.373 146.22 242.525 146.22C241.117 146.22 240.075 145.677 239.401 144.592C238.755 143.507 238.433 141.981 238.433 140.016C237.934 142.011 237.186 143.551 236.189 144.636C235.191 145.692 234.121 146.22 232.977 146.22ZM273.101 136.276C273.482 136.276 273.776 136.467 273.981 136.848C274.216 137.2 274.333 137.655 274.333 138.212C274.333 138.887 274.23 139.415 274.025 139.796C273.82 140.177 273.497 140.515 273.057 140.808C270.534 142.509 268.686 143.771 267.513 144.592L264.697 146.484C263.582 152.556 262.116 157.323 260.297 160.784C258.508 164.275 256.22 166.02 253.433 166.02C251.937 166.02 250.72 165.551 249.781 164.612C248.842 163.703 248.373 162.5 248.373 161.004C248.373 158.921 249.194 156.677 250.837 154.272C252.48 151.896 255.56 148.963 260.077 145.472L260.341 143.756C259.842 144.548 259.182 145.164 258.361 145.604C257.569 146.015 256.777 146.22 255.985 146.22C254.166 146.22 252.714 145.56 251.629 144.24C250.544 142.92 250.001 141.189 250.001 139.048C250.001 136.701 250.544 134.487 251.629 132.404C252.714 130.292 254.152 128.605 255.941 127.344C257.76 126.053 259.681 125.408 261.705 125.408C262.35 125.408 262.776 125.54 262.981 125.804C263.216 126.039 263.406 126.479 263.553 127.124C264.11 127.007 264.756 126.948 265.489 126.948C266.222 126.948 266.736 127.065 267.029 127.3C267.352 127.505 267.513 127.931 267.513 128.576C267.513 128.928 267.498 129.207 267.469 129.412C267.352 130.321 266.985 132.624 266.369 136.32C266.252 137.024 266.12 137.801 265.973 138.652C265.856 139.473 265.724 140.353 265.577 141.292C267.836 139.532 270.006 137.977 272.089 136.628C272.47 136.393 272.808 136.276 273.101 136.276ZM257.569 141.776C258.244 141.776 258.889 141.365 259.505 140.544C260.121 139.723 260.561 138.549 260.825 137.024L262.233 129.5C261.03 129.529 259.916 129.999 258.889 130.908C257.862 131.788 257.041 132.961 256.425 134.428C255.809 135.895 255.501 137.449 255.501 139.092C255.501 140.001 255.677 140.676 256.029 141.116C256.41 141.556 256.924 141.776 257.569 141.776ZM253.917 161.752C254.65 161.752 255.472 160.872 256.381 159.112C257.32 157.352 258.214 154.551 259.065 150.708C256.806 152.644 255.178 154.389 254.181 155.944C253.184 157.499 252.685 158.863 252.685 160.036C252.685 160.535 252.773 160.945 252.949 161.268C253.154 161.591 253.477 161.752 253.917 161.752ZM288.315 125.496C288.99 125.496 289.459 125.584 289.723 125.76C289.987 125.936 290.119 126.229 290.119 126.64C290.119 127.344 289.738 129.852 288.975 134.164C288.3 138.3 287.904 140.749 287.787 141.512C286.702 149.051 285.206 155.02 283.299 159.42C281.392 163.82 278.855 166.02 275.687 166.02C274.191 166.02 272.974 165.551 272.035 164.612C271.096 163.703 270.627 162.5 270.627 161.004C270.627 159.625 270.935 158.217 271.551 156.78C272.196 155.343 273.37 153.685 275.071 151.808C276.802 149.96 279.236 147.833 282.375 145.428L282.507 144.416C282.712 143.331 282.947 141.776 283.211 139.752C282.624 141.864 281.803 143.477 280.747 144.592C279.691 145.677 278.576 146.22 277.403 146.22C276.083 146.22 274.998 145.619 274.147 144.416C273.326 143.184 272.915 141.659 272.915 139.84C272.915 137.64 273.062 135.631 273.355 133.812C273.648 131.964 274.132 130.013 274.807 127.96C275.1 127.08 275.511 126.449 276.039 126.068C276.567 125.687 277.403 125.496 278.547 125.496C279.192 125.496 279.632 125.599 279.867 125.804C280.131 126.009 280.263 126.317 280.263 126.728C280.263 126.963 280.102 127.755 279.779 129.104C279.486 130.189 279.251 131.172 279.075 132.052C278.84 133.255 278.635 134.413 278.459 135.528C278.283 136.613 278.195 137.508 278.195 138.212C278.195 139.327 278.503 139.884 279.119 139.884C279.559 139.884 280.102 139.444 280.747 138.564C281.422 137.684 282.126 136.349 282.859 134.56C283.622 132.771 284.355 130.571 285.059 127.96C285.294 127.08 285.646 126.449 286.115 126.068C286.614 125.687 287.347 125.496 288.315 125.496ZM276.171 161.752C276.904 161.752 277.726 160.901 278.635 159.2C279.544 157.499 280.454 154.668 281.363 150.708C279.104 152.615 277.462 154.345 276.435 155.9C275.438 157.484 274.939 158.863 274.939 160.036C274.939 160.535 275.027 160.945 275.203 161.268C275.408 161.591 275.731 161.752 276.171 161.752Z"
     fill="black"
     id="path2" />
  <path
     d="M103.657 198.912L112.868 179.137L115.241 178.469L115.593 177.133H107.577L107.226 178.469L110.337 179.207L103.253 194.781L99.0694 179.137L102.128 178.469L102.497 177.133H93.2334L92.8643 178.469L95.3077 179.207L100.933 199.439L103.657 198.912ZM130.691 184.375C130.199 183.754 129.021 183.443 127.158 183.443C125.798 183.443 124.421 183.877 123.027 184.744C121.644 185.6 120.49 186.842 119.564 188.471C118.65 190.1 118.193 192.004 118.193 194.184C118.193 195.238 118.334 196.158 118.615 196.943C118.908 197.729 119.318 198.332 119.845 198.754C120.384 199.164 121.011 199.369 121.726 199.369C122.57 199.369 123.367 199.117 124.117 198.613C124.867 198.098 125.453 197.453 125.875 196.68H126.086C126.015 196.926 125.98 197.154 125.98 197.365C125.98 197.951 126.191 198.42 126.613 198.771C127.035 199.123 127.591 199.299 128.283 199.299C129.045 199.299 129.929 199.111 130.937 198.736L131.254 197.523L129.918 197.312C129.601 197.266 129.373 197.137 129.232 196.926C129.103 196.715 129.039 196.352 129.039 195.836C129.039 195.227 129.168 194.066 129.425 192.355L130.691 184.375ZM126.173 195.467C125.693 196.006 125.218 196.422 124.75 196.715C124.293 196.996 123.759 197.137 123.15 197.137C122.447 197.137 121.914 196.832 121.55 196.223C121.199 195.613 121.023 194.664 121.023 193.375C121.023 192.098 121.211 190.832 121.586 189.578C121.972 188.324 122.511 187.293 123.203 186.484C123.906 185.676 124.703 185.271 125.593 185.271C126.543 185.271 127.24 185.477 127.685 185.887L126.173 195.467ZM135.506 177.818C136.033 177.818 136.432 177.895 136.701 178.047C136.971 178.188 137.106 178.475 137.106 178.908C137.106 178.99 137.094 179.125 137.07 179.312L134.557 195.59C134.475 196.188 134.434 196.645 134.434 196.961C134.434 197.77 134.627 198.361 135.014 198.736C135.412 199.111 136.069 199.299 136.983 199.299C137.44 199.299 137.891 199.24 138.336 199.123C138.793 199.018 139.168 198.889 139.461 198.736L139.602 197.312C139.098 197.324 138.694 197.312 138.389 197.277C138.096 197.23 137.85 197.107 137.651 196.908C137.463 196.709 137.369 196.398 137.369 195.977C137.369 195.273 137.504 194.066 137.774 192.355L139.848 179.242C139.918 178.762 139.953 178.328 139.953 177.941C139.953 177.227 139.778 176.699 139.426 176.359C139.086 176.02 138.483 175.85 137.615 175.85C136.619 175.85 135.723 176.043 134.926 176.43L134.768 177.836L135.506 177.818ZM146.632 175.85C145.635 175.85 144.739 176.043 143.942 176.43L143.784 177.836L144.522 177.818C145.05 177.818 145.448 177.895 145.717 178.047C145.987 178.188 146.122 178.475 146.122 178.908C146.122 178.99 146.11 179.125 146.087 179.312L143.081 198.121C143.538 198.543 144.153 198.859 144.926 199.07C145.7 199.293 146.444 199.404 147.159 199.404C148.94 199.404 150.54 198.93 151.958 197.98C153.376 197.031 154.477 195.789 155.262 194.254C156.048 192.719 156.44 191.113 156.44 189.438C156.44 188.301 156.282 187.275 155.966 186.361C155.661 185.447 155.186 184.721 154.542 184.182C153.897 183.631 153.1 183.355 152.151 183.355C151.366 183.355 150.546 183.648 149.69 184.234C148.835 184.809 148.173 185.5 147.704 186.309H147.493L147.985 184.199L148.864 179.242C148.946 178.668 148.987 178.229 148.987 177.924C148.987 177.221 148.811 176.699 148.46 176.359C148.108 176.02 147.499 175.85 146.632 175.85ZM153.505 190.51C153.505 191.658 153.294 192.777 152.872 193.867C152.462 194.945 151.887 195.824 151.149 196.504C150.423 197.184 149.602 197.523 148.688 197.523C148.137 197.523 147.616 197.412 147.124 197.189C146.643 196.955 146.292 196.65 146.069 196.275L147.546 187.645C148.026 187.059 148.495 186.613 148.952 186.309C149.421 186.004 149.989 185.852 150.657 185.852C151.63 185.852 152.344 186.303 152.801 187.205C153.27 188.107 153.505 189.209 153.505 190.51ZM164.279 190.07C164.689 189.227 165.193 188.459 165.79 187.768C166.4 187.064 167.05 186.713 167.741 186.713C168.058 186.713 168.327 186.754 168.55 186.836C168.784 186.918 169.019 187.076 169.253 187.311C169.581 186.982 169.827 186.613 169.991 186.203C170.156 185.793 170.238 185.389 170.238 184.99C170.238 184.51 170.085 184.111 169.781 183.795C169.488 183.479 169.077 183.32 168.55 183.32C167.988 183.32 167.443 183.566 166.915 184.059C166.388 184.551 165.913 185.184 165.491 185.957C165.07 186.719 164.724 187.51 164.454 188.33H164.261L164.665 186.309C164.747 185.852 164.788 185.506 164.788 185.271C164.788 184.592 164.589 184.094 164.191 183.777C163.792 183.449 163.171 183.285 162.327 183.285C161.331 183.285 160.435 183.479 159.638 183.865L159.48 185.271L160.218 185.254C160.734 185.254 161.126 185.33 161.396 185.482C161.665 185.635 161.8 185.939 161.8 186.396C161.8 186.549 161.794 186.666 161.783 186.748L160.165 199H163.101L164.279 190.07ZM181.451 195.344C180.994 195.777 180.514 196.129 180.01 196.398C179.506 196.668 178.89 196.803 178.164 196.803C177.496 196.803 177.015 196.609 176.722 196.223C176.43 195.836 176.283 195.268 176.283 194.518C176.283 194.084 176.33 193.557 176.424 192.936L177.355 186.818C177.437 186.361 177.478 185.922 177.478 185.5C177.478 184.797 177.303 184.275 176.951 183.936C176.599 183.596 175.99 183.426 175.123 183.426C174.127 183.426 173.23 183.619 172.433 184.006L172.275 185.412L173.014 185.395C173.529 185.395 173.922 185.471 174.191 185.623C174.472 185.775 174.613 186.074 174.613 186.52C174.613 186.578 174.601 186.701 174.578 186.889L173.488 194.482C173.394 195.115 173.347 195.66 173.347 196.117C173.347 197.242 173.588 198.074 174.068 198.613C174.56 199.141 175.299 199.404 176.283 199.404C177.244 199.404 178.164 199.105 179.043 198.508C179.933 197.898 180.678 197.195 181.275 196.398H181.486C181.404 196.762 181.363 197.113 181.363 197.453C181.363 198.695 182.049 199.316 183.42 199.316C183.853 199.316 184.275 199.264 184.685 199.158C185.107 199.053 185.547 198.918 186.004 198.754L186.32 197.541L185.16 197.33C184.832 197.283 184.58 197.184 184.404 197.031C184.24 196.879 184.158 196.639 184.158 196.311C184.158 196.24 184.17 196.123 184.193 195.959L185.441 186.818C185.512 186.186 185.547 185.764 185.547 185.553C185.547 184.826 185.377 184.293 185.037 183.953C184.697 183.602 184.088 183.426 183.209 183.426C182.213 183.426 181.316 183.619 180.519 184.006L180.361 185.412L181.099 185.395C181.615 185.395 182.008 185.471 182.277 185.623C182.558 185.775 182.699 186.074 182.699 186.52C182.699 186.578 182.687 186.701 182.664 186.889L181.451 195.344ZM192.102 183.285C191.106 183.285 190.209 183.479 189.412 183.865L189.254 185.271L189.993 185.254C190.508 185.254 190.901 185.33 191.17 185.482C191.452 185.635 191.592 185.934 191.592 186.379C191.592 186.438 191.58 186.561 191.557 186.748L189.94 199H192.805L194.475 187.363C194.932 186.93 195.412 186.578 195.916 186.309C196.42 186.039 197.036 185.904 197.762 185.904C198.43 185.904 198.911 186.098 199.204 186.484C199.496 186.871 199.643 187.439 199.643 188.189C199.643 188.623 199.596 189.15 199.502 189.771L198.606 195.537C198.512 196.1 198.465 196.568 198.465 196.943C198.465 197.74 198.664 198.326 199.063 198.701C199.461 199.064 200.118 199.246 201.032 199.246C201.489 199.246 201.94 199.188 202.385 199.07C202.842 198.965 203.217 198.836 203.51 198.684L203.651 197.26C203.147 197.271 202.743 197.26 202.438 197.225C202.145 197.178 201.899 197.055 201.7 196.855C201.512 196.656 201.418 196.346 201.418 195.924C201.418 195.232 201.553 194.043 201.823 192.355L202.438 188.225C202.543 187.592 202.596 187.023 202.596 186.52C202.596 184.375 201.612 183.303 199.643 183.303C198.682 183.303 197.756 183.607 196.866 184.217C195.987 184.814 195.248 185.512 194.651 186.309H194.44C194.534 185.875 194.58 185.518 194.58 185.236C194.58 184.568 194.375 184.076 193.965 183.76C193.555 183.443 192.934 183.285 192.102 183.285ZM218.714 184.375C218.222 183.754 217.044 183.443 215.181 183.443C213.821 183.443 212.444 183.877 211.05 184.744C209.667 185.6 208.513 186.842 207.587 188.471C206.673 190.1 206.216 192.004 206.216 194.184C206.216 195.238 206.356 196.158 206.638 196.943C206.931 197.729 207.341 198.332 207.868 198.754C208.407 199.164 209.034 199.369 209.749 199.369C210.593 199.369 211.39 199.117 212.14 198.613C212.89 198.098 213.476 197.453 213.897 196.68H214.108C214.038 196.926 214.003 197.154 214.003 197.365C214.003 197.951 214.214 198.42 214.636 198.771C215.058 199.123 215.614 199.299 216.306 199.299C217.067 199.299 217.952 199.111 218.96 198.736L219.276 197.523L217.94 197.312C217.624 197.266 217.395 197.137 217.255 196.926C217.126 196.715 217.061 196.352 217.061 195.836C217.061 195.227 217.19 194.066 217.448 192.355L218.714 184.375ZM214.196 195.467C213.716 196.006 213.241 196.422 212.772 196.715C212.315 196.996 211.782 197.137 211.173 197.137C210.47 197.137 209.936 196.832 209.573 196.223C209.222 195.613 209.046 194.664 209.046 193.375C209.046 192.098 209.233 190.832 209.608 189.578C209.995 188.324 210.534 187.293 211.226 186.484C211.929 185.676 212.726 185.271 213.616 185.271C214.565 185.271 215.263 185.477 215.708 185.887L214.196 195.467Z"
     fill="black"
     id="path4" />
  <path
     fill-rule="evenodd"
     clip-rule="evenodd"
     d="m 9.72316,76.016609 7.40364,-8.0115 6.2654,-0.1501 2.802,-2.4023 4.5976,0.1124 4.8396,4.187 3.2528,-3.1973 3.1528,-1.8629 6.3828,3.1271 0.452,2.7036 3.164,-2.7036 3.616,1.3521 1.808,9.0121 5.424,-8.1109 3.616,-1.8886 2.034,-0.6769 2.2916,0.5217 2.9064,3.3931 3.616,0.4508 0.6893,3.2316 4.9986,1.077 2.78,-1.2151 4.1881,0.0559 c 2.3768,-0.6695 3.8333,-2.717 5.319,-4.72 l 3.1527,-1.7431 2.8095,-2.771 2.526,-0.9799 2.784,-2.0068 7.018,3.2087 1.598,2.8903 7.524,-5.0659 3.936,-5.9352 4.076,-2.4468 2.773,0.2916 2.602,1.3185 0.291,1.9742 2.22,-0.7426 5.611,2.759 9.04,0.9012 3.616,-2.7036 1.356,1.3521 4.128,-6.5716 c 0,0 4.473,-4.1213 5.756,-7.1337 2.154,-0.7313 4.128,-4.3188 4.128,-4.3188 l 2.396,-0.6376 4.808,-4.6487 5.25,1.0433 2.699,-0.428 3.801,4.2298 2.298,3.7327 2.252,-1.2928 1.356,-2.4405 1.552,-0.6375 c 0.75,1.6776 3.872,6.9465 3.872,6.9465 l 2.712,-5.8575 3.693,-3.8965 2.525,-0.7968 1.433,0.8287 2.25,-0.9577 3.019,0.5725 5.078,2.4211 2.645,-2.6973 3.664,-0.0931 2.014,-4.1322 3.059,-3.8685 3.616,-2.2533 2.712,-1.80298 3.674,1.88458 4.462,-0.7631 2.49,-2.8594 2.772,-0.16837 c 0.421,0.77053 2.024,1.30343 1.263,2.30924 l 2.967,-3.08031 4.023,1.74648 2.839,1.84406 4.219,2.6717 4.349,3.889 c 2.088,-0.0935 5.423,-0.8792 6.426,-0.9634 l 4.666,0.625 4.494,0.1963 6.599,3.3577 7.501,1.8606 1.754,2.5342 5.996,0.2168 3.567,1.472 c 0.68,1.4532 2.334,2.5541 4.967,5.7605 0,0 -0.299,3.001 -2.633,2.4354 -2.334,-0.5656 -6.969,-5.6418 -6.969,-5.6418 l -6.517,-1.1261 -4.542,-3.4382 -4.972,-1.3835 -4.456,-1.384 -9.205,-1.8087 -7.467,1.4908 -9.554,-7.6885 c -1.282,-1.2475 1.687,1.5113 -3.973,-2.085 l -3.84,2.0085 -7.051,2.5929 -7.982,-1.5165 -4.577,4.0004 -5.094,6.7142 -5.346,0.5125 c 0,0 -4.245,4.6529 -5.562,7.3714 -1.142,2.3565 -0.027,6.6358 -2.527,7.4363 -0.426,0.1309 -0.803,-0.7154 -0.803,-0.7154 -0.31,-0.9033 -0.233,-3.8546 0.803,-6.9876 1.037,-3.133 2.432,-5.2491 1.841,-5.5089 l -2.686,-1.7282 -3.326,0.8904 -3.325,-0.1313 -3.975,5.272 -3.086,4.7788 -7.677,12.8841 -8.522,13.6539 c -0.209,-0.3871 -2.039,1.3018 -0.551,-3.9604 1.213,-4.2907 9.931,-15.7681 10.593,-17.781 1.325,-4.026 1.893,-4.8147 2.211,-7.2867 -0.094,-1.7954 -0.659,-2.3612 -1.919,-3.0672 l -3.975,3.6665 -2.48,-2.2585 -3.167,-5.5111 -4.368,-1.7225 -8.654,3.7127 -5.313,5.583 -4.961,6.0037 -3.833,7.1703 -3.803,7.2125 -3.921,17.3975 c -1.011,1.2586 -1.775,0.5442 -2.465,-0.7631 1.011,-6.9273 0.813,-10.6559 1.463,-17.8604 l -0.782,-4.9398 -6.937,-1.0045 -5.561,-2.4856 -3.057,1.771 -4.873,-3.7355 -6.223,6.4238 -10.042,9.5879 -3.419,-6.1983 -4.707,-1.7824 -13.7174,10.5593 -9.4065,2.9314 -5.9519,-0.9001 -4.4946,-3.3206 -3.9977,-5.3325 -5.049,3.7087 c 0,0 -2.9601,8.2553 -6.3654,8.0019 -2.0271,-0.1496 -3.0376,-5.2714 -3.0376,-5.2714 l -1.682,-6.091 -3.651,3.0375 c -2.1477,-2.2428 0,0 -6.4429,-5.958 l -7.3933,4.8976 -6.1313,-4.1499 c 0,0 -6.3415,-0.075 -9.8925,1.4006 -1.4593,0.6078 -5.2287,4.0261 -6.9229,5.0671 -1.43,0.879 -2.37372,-0.0931 -2.37372,-0.0931 z"
     fill="#000000"
     stroke="#000000"
     stroke-width="0.596"
     stroke-linecap="round"
     stroke-linejoin="round"
     id="path8" />
</svg>
